<?xml version="1.0" standalone="no"?>
<!DOCTYPE svg PUBLIC "-//W3C//DTD SVG 1.1//EN" "http://www.w3.org/Graphics/SVG/1.1/DTD/svg11.dtd" >
<!--
2013-9-30: Created.
-->
<svg>
<metadata>
Created by iconfont
</metadata>
<defs>

<font id="font_family" horiz-adv-x="1024" >
  <font-face
    font-family="font_family"
    font-weight="500"
    font-stretch="normal"
    units-per-em="1024"
    ascent="896"
    descent="-128"
  />
    <missing-glyph />
    
    <glyph glyph-name="yuyin" unicode="&#58959;" d="M757.76 513.706667H512c-27.306667 0-47.786667-20.48-47.786667-47.786667s20.48-47.786667 47.786667-47.786667H750.933333c-13.653333-116.053333-116.053333-204.8-238.933333-204.8-136.533333 0-245.76 109.226667-245.76 245.76v136.533334c0 136.533333 109.226667 245.76 245.76 245.76 95.573333 0 177.493333-54.613333 218.453333-136.533334H512c-27.306667 0-47.786667-20.48-47.786667-47.786666s20.48-47.786667 47.786667-47.786667h245.76v-95.573333zM860.16 520.533333c20.48 0 34.133333-13.653333 34.133333-34.133333v-34.133333c0-197.973333-157.013333-361.813333-348.16-382.293334v-68.266666h177.493334c20.48 0 34.133333-13.653333 34.133333-34.133334s-13.653333-34.133333-34.133333-34.133333H300.373333c-20.48 0-34.133333 13.653333-34.133333 34.133333s13.653333 34.133333 34.133333 34.133334H477.866667v68.266666C279.893333 90.453333 129.706667 254.293333 129.706667 452.266667V486.4c0 20.48 13.653333 34.133333 34.133333 34.133333s34.133333-13.653333 34.133333-34.133333v-34.133333c0-170.666667 143.36-314.026667 314.026667-314.026667s314.026667 143.36 314.026667 314.026667V486.4c0 20.48 20.48 34.133333 34.133333 34.133333z"  horiz-adv-x="1024" />

    
    <glyph glyph-name="biaoqing" unicode="&#58958;" d="M90.577455 733.184a139.636364 139.636364 0 1 0 279.272727 0 139.636364 139.636364 0 0 0-279.272727 0z m654.149818 0a139.636364 139.636364 0 1 0 279.272727 0 139.636364 139.636364 0 0 0-279.272727 0zM55.947636 376.738909H1056.581818c0-229.096727-210.664727-504.180364-506.042182-504.180364C255.255273-127.534545 55.947636 147.549091 55.947636 376.552727z"  horiz-adv-x="1117" />

    
    <glyph glyph-name="xiaohoubianchengmoren" unicode="&#58957;" d="M896 896c70.72 0 128-58.624 128-130.88v-587.648c0-72.32-57.28-130.944-128-130.944H554.688v-87.232H768c23.552 0 42.688-19.584 42.688-43.648A43.136 43.136 0 0 0 768-128H256a43.136 43.136 0 0 0-42.688 43.648c0 24.064 19.136 43.648 42.688 43.648h213.312v87.232H128c-70.72 0-128 58.624-128 130.944v544C0 817.856 76.416 896 170.688 896H896z m5.568-90.048L896 806.4H170.688c-41.6 0-76.48-33.024-80.64-76.16l-0.448-8.768v-544c0-21.12 14.592-38.016 32.832-40.896l5.568-0.448h768c18.88 0 35.2 14.912 37.952 35.136l0.448 6.208V765.12c0 21.12-14.592 37.952-32.832 40.832zM607.04 635.328a41.728 41.728 0 0 0 20.544-49.92l-3.072-7.104-140.352-257.28a41.728 41.728 0 1 0-74.176 38.336l140.8 258.048a41.728 41.728 0 0 0 56.256 17.92zM679.744 630.912a37.44 37.44 0 0 1 9.024-45.568l140.224-112.768-140.608-113.152a37.44 37.44 0 0 1 46.848-58.432l176.96 142.4a37.44 37.44 0 0 1 0 58.368l-176.128 141.568a37.568 37.568 0 0 1-52.864-6.912l-3.456-5.504zM355.2 630.912a37.44 37.44 0 0 0-8.96-45.568L205.888 472.576l140.608-113.152a37.44 37.44 0 0 0-46.784-58.432L122.752 443.392a37.44 37.44 0 0 0 0 58.368L298.88 643.328c16.896 12.8 40.384 9.6 52.864-6.912l3.456-5.504z"  horiz-adv-x="1024" />

    
    <glyph glyph-name="load" unicode="&#58895;" d="M393.596821 612.061318c0 76.513628 62.024635 138.539286 138.539286 138.539286 76.512604 0 138.54031-62.026682 138.54031-138.539286s-62.027705-138.539286-138.54031-138.539286C455.621457 473.522032 393.596821 535.548714 393.596821 612.061318zM81.882404 265.712079c0 57.385988 46.5195 103.905488 103.904465 103.905488s103.904465-46.5195 103.904465-103.905488c0-57.384965-46.5195-103.905488-103.904465-103.905488S81.882404 208.327114 81.882404 265.712079zM757.263471 508.156854c0 9.56382 7.751544 17.317411 17.317411 17.317411 9.56382 0 17.317411-7.753591 17.317411-17.317411s-7.753591-17.317411-17.317411-17.317411C765.015016 490.839443 757.263471 498.593034 757.263471 508.156854zM367.836111 586.951431c-43.077098 43.509956-112.995517 43.509956-156.072615 0-43.077098-43.509956-43.077098-114.078175 0-157.589155 43.077098-43.509956 112.995517-43.509956 156.072615 0C410.914232 472.872233 410.914232 543.441475 367.836111 586.951431zM843.850525 265.712079c0 19.128663 15.505136 34.635845 34.634822 34.635845 19.126616 0 34.635845-15.507182 34.635845-34.635845 0-19.126616-15.508205-34.634822-34.635845-34.634822C859.355661 231.077258 843.850525 246.585463 843.850525 265.712079zM724.792942 21.104035c0 28.692482 23.258727 51.951209 51.952232 51.951209 28.690436 0 51.953256-23.258727 51.953256-51.951209s-23.261797-51.953256-51.953256-51.953256C748.052692-30.84922 724.792942-7.588447 724.792942 21.104035zM462.866465-80.63716c0 38.258349 31.012318 69.270666 69.269643 69.270666 38.256302 0 69.269643-31.013341 69.269643-69.270666 0-38.256302-31.014364-69.26862-69.269643-69.26862C493.878782-149.90578 462.866465-118.893462 462.866465-80.63716zM203.104279 23.268328c0 47.821145 38.766932 86.587054 86.587054 86.587054 47.821145 0 86.587054-38.765909 86.587054-86.587054 0-47.819099-38.765909-86.587054-86.587054-86.587054C241.871211-63.318726 203.104279-24.550771 203.104279 23.268328z"  horiz-adv-x="1024" />

    
    <glyph glyph-name="dianzan2" unicode="&#58955;" d="M724.252444 869.774222l-2.360888 0.085334c-59.164444 0-103.907556-30.264889-118.784-82.147556l-1.251556-4.664889a117.902222 117.902222 0 0 1-3.157333-18.062222l-0.170667-1.564445-2.275556-4.152888v-19.342223c0-43.150222-19.2-90.197333-56.888888-138.808889l-6.371556-8.078222a459.52 459.52 0 0 0-46.705778-49.294222l-7.68-6.912c-4.835556-4.209778-8.903111-7.566222-11.804444-9.756444l-29.582222-22.129778v-469.617778c0.056889-79.786667 73.671111-132.266667 153.713777-132.266667h321.308445c48.156444 0 79.303111 28.956444 105.301333 81.834667a365.226667 365.226667 0 0 1 20.394667 51.285333l10.012444 35.072c29.041778 103.253333 49.493333 188.387556 61.667556 255.630223l2.958222 16.924444c5.432889 32.455111 8.163556 56.775111 8.163556 71.68 0 49.664-23.04 90.368-63.488 111.701333l-6.087112 2.986667a132.920889 132.920889 0 0 1-61.013333 11.776l-2.360889-0.113778-116.906666 0.113778 0.995555 6.030222c19.683556 126.606222 1.592889 219.477333-55.950222 276.963556-25.770667 25.827556-56.234667 41.073778-85.646222 44.430222l-6.030223 0.398222z m-7.054222-85.361778l3.925334 0.085334 1.991111-0.113778c7.281778-0.910222 19.996444-7.253333 32.426666-19.768889 40.96-40.846222 51.484444-124.956444 21.959111-255.914667l-11.719111-52.053333 224.426667-0.085333 4.408889 0.199111c6.826667 0.284444 13.994667-1.024 20.593778-3.982222l3.527111-1.706667c10.325333-5.489778 16.668444-16.725333 16.668444-35.584l-0.170666-5.233778c-0.739556-12.970667-3.896889-36.636444-9.585778-68.152889-12.970667-71.537778-36.010667-165.632-69.432889-281.372444a277.902222 277.902222 0 0 0-15.303111-38.314667c-13.141333-26.680889-21.020444-33.991111-28.672-33.991111H590.933333l-5.12 0.113778c-35.527111 1.848889-63.232 22.698667-63.232 46.791111l-0.028444 427.064889 3.015111 2.417778a545.479111 545.479111 0 0 1 73.955556 74.808889l7.025777 8.817777 6.826667 9.016889c42.097778 57.031111 65.763556 115.313778 68.010667 173.312l0.113777 6.172445 0.796445 1.422222 1.052444 15.644444a43.804444 43.804444 0 0 0 1.792 10.183111c3.584 12.515556 12.600889 19.313778 32.056889 20.224zM277.048889 535.808H133.916444c-40.419556 0-75.150222-19.171556-93.980444-52.081778-8.533333-14.592-13.368889-31.431111-13.738667-48.64l0.085334-3.811555 29.639111-441.856-0.085334 2.958222c-0.085333-37.347556 20.394667-69.802667 53.134223-87.552l5.404444-2.702222a117.532444 117.532444 0 0 1 49.436445-11.264h124.245333c32.881778 0 62.378667 12.430222 81.92 35.982222l4.010667 5.233778c11.576889 16.213333 17.351111 34.417778 17.351111 53.105777v441.742223c0 44.032-24.177778 80.270222-63.232 97.877333a122.709333 122.709333 0 0 1-51.057778 11.008z m-143.132445-85.333333h143.217778c5.518222 0 10.865778-1.137778 15.758222-3.384889 9.045333-4.096 13.084444-10.183111 13.084445-20.195556v-441.770666c0-0.967111-0.284444-1.848889-0.768-2.56l-2.104889-2.759112c-1.251556-1.422222-6.4-3.612444-15.047111-3.612444H163.982222c-4.266667 0-8.647111 0.995556-12.686222 2.844444l-2.929778 1.479112a12.856889 12.856889 0 0 0-7.196444 11.662222l-0.085334 2.958222-29.496888 439.011556-0.085334-0.995556a16.213333 16.213333 0 0 0 2.275556 7.822222c3.498667 6.087111 9.671111 9.500444 20.138666 9.500445z"  horiz-adv-x="1137" />

    
    <glyph glyph-name="dianzan3" unicode="&#58956;" d="M724.252444 869.774222l-2.360888 0.085334c-59.164444 0-103.907556-30.264889-118.784-82.147556l-1.251556-4.664889a117.902222 117.902222 0 0 1-3.157333-18.062222l-0.170667-1.564445-2.275556-4.152888v-19.342223c0-43.150222-19.2-90.197333-56.888888-138.808889l-6.371556-8.078222a459.52 459.52 0 0 0-46.705778-49.294222l-7.68-6.912c-4.835556-4.209778-8.903111-7.566222-11.804444-9.756444l-29.582222-22.129778v-469.617778c0.056889-79.786667 73.671111-132.266667 153.713777-132.266667h321.308445c48.156444 0 79.303111 28.956444 105.301333 81.834667a365.226667 365.226667 0 0 1 20.394667 51.285333l10.012444 35.072c29.041778 103.253333 49.493333 188.387556 61.667556 255.630223l2.958222 16.924444c5.432889 32.455111 8.163556 56.775111 8.163556 71.68 0 49.664-23.04 90.368-63.488 111.701333l-6.087112 2.986667a132.920889 132.920889 0 0 1-61.013333 11.776l-2.360889-0.113778-116.906666 0.113778 0.995555 6.030222c19.683556 126.606222 1.592889 219.477333-55.950222 276.963556-25.770667 25.827556-56.234667 41.073778-85.646222 44.430222l-6.030223 0.398222zM277.048889 535.808H133.916444c-40.419556 0-75.150222-19.171556-93.980444-52.081778-8.533333-14.592-13.368889-31.431111-13.738667-48.64l0.085334-3.811555 29.639111-441.856-0.085334 2.958222c-0.085333-37.347556 20.394667-69.802667 53.134223-87.552l5.404444-2.702222a117.532444 117.532444 0 0 1 49.436445-11.264h124.245333c32.881778 0 62.378667 12.430222 81.92 35.982222l4.010667 5.233778c11.576889 16.213333 17.351111 34.417778 17.351111 53.105777v441.742223c0 44.032-24.177778 80.270222-63.232 97.877333a122.709333 122.709333 0 0 1-51.057778 11.008z"  horiz-adv-x="1137" />

    
    <glyph glyph-name="shanchu" unicode="&#58953;" d="M826.105436 767.789949h-102.662564l-12.235487 80.712205C707.085128 874.548513 680.539897 896 651.946667 896H372.053333c-28.619487 0-55.138462-21.451487-59.260718-47.524103l-12.235487-80.16082h-102.662564C140.156718 767.789949 93.184 724.886974 93.184 672.295385v-32.190359H930.789744V671.770256c0 53.116718-46.998974 96.019692-104.710565 96.019693zM380.744205 831.671795h262.012718l10.213744-63.330462H371.029333l9.714872 63.330462z m462.742974-255.369846H179.987692c-38.281846 0-67.400205-28.619487-63.304205-63.330462l57.186462-574.621538c3.597128-34.737231 37.284103-63.330462 76.117333-63.330462H773.513846c38.308103 0 73.045333 28.619487 76.091077 63.330462l57.212718 574.621538c4.096 34.710974-24.523487 63.330462-63.330462 63.330462zM267.342769 2.179282L232.631795 449.063385h139.447795v-446.884103H267.342769z m314.630564 0h-139.946666V448.564513h139.421538v-446.385231h0.525128z m174.683898 0H651.946667V448.564513h139.421538l-34.710974-446.385231z"  horiz-adv-x="1024" />

    
    <glyph glyph-name="xuanzhuan" unicode="&#58954;" d="M511.737436 883.922051l-175.130257-118.206359c-21.267692-14.178462-21.267692-47.130256 0-61.282461l175.576616-118.547693 2.809436-1.811692c23.578256-13.837128 54.849641 3.465846 54.849641 32.40041V684.635897l8.402051-0.840205c84.834462-9.452308 169.931487-40.198564 232.81559-100.089436 62.779077-60.04841 94.523077-145.197949 94.523077-255.658666 0-29.144615 24.024615-53.195487 53.195487-53.195487a53.510564 53.510564 0 0 1 53.221744 53.195487c-1.549128 141.67959-43.926974 253.374359-128.105026 332.983795l-8.402051 7.929436c-84.676923 77.981538-193.430974 113.532718-303.602872 122.302358l-2.048 0.131283V853.674667C569.842872 883.764513 536.024615 901.251282 511.737436 883.922051zM668.882051 563.593846H137.452308A137.478564 137.478564 0 0 1 0 426.141538v-408.470974a137.478564 137.478564 0 0 1 137.426051-137.426051h531.456a137.478564 137.478564 0 0 1 137.452308 137.426051V426.141538a137.478564 137.478564 0 0 1-137.452308 137.452308z m-531.429743-105.025641h531.429743c17.854359 0 32.426667-14.572308 32.426667-32.426667v-408.470974c0-17.854359-14.572308-32.40041-32.426667-32.40041H137.452308c-17.854359 0-32.426667 14.546051-32.426667 32.40041V426.141538c0 17.854359 14.546051 32.426667 32.40041 32.426667z"  horiz-adv-x="1024" />

    
    <glyph glyph-name="cai" unicode="&#58951;" d="M977.268364 396.846545c-10.984727 38.539636-1.675636 36.864-26.065455 92.625455-8.564364 19.549091 4.002909 91.880727-57.157818 151.738182-13.125818 12.846545 2.513455 78.196364-51.479273 126.603636-11.450182 10.426182-14.522182 29.882182-38.074182 42.635637C760.366545 834.094545 728.901818 832.698182 672.861091 832.698182c-107.52 0-321.722182-34.257455-382.417455-76.520727a40.587636 40.587636 0 0 1-17.687272-33.233455V328.145455c0-12.474182 10.705455-27.927273 20.666181-35.84 14.522182-11.636364 31.185455-26.437818 110.405819-81.175273 92.066909-63.674182 93.090909-75.589818 130.978909-135.261091 0 0 46.638545-108.544 49.152-115.339636 34.722909-93.649455 150.248727-69.073455 163.002182 28.206545 7.540364 57.250909-14.894545 105.658182-28.858182 154.996364-13.032727 45.614545-22.341818 70.469818-26.065455 97.000727 49.058909-4.189091 142.242909-19.921455 170.356364-18.152727 95.138909 6.050909 151.738182 44.311273 114.874182 174.173091zM126.603636 256.930909c38.167273 0 68.887273 29.789091 68.887273 66.653091V726.388364a67.770182 67.770182 0 0 1-68.887273 66.56c-38.074182 0-68.887273-29.789091-68.887272-66.56V323.490909c0-36.770909 30.906182-66.653091 68.887272-66.653091z"  horiz-adv-x="1024" />

    
    <glyph glyph-name="dianzan1" unicode="&#58952;" d="M977.268364 337.640727c-10.984727-38.539636-1.675636-36.864-26.065455-92.625454-8.564364-19.549091 4.002909-91.880727-57.157818-151.738182-13.125818-12.846545 2.513455-78.196364-51.479273-126.603636-11.450182-10.426182-14.522182-29.882182-38.074182-42.635637-44.125091-23.645091-75.589818-22.248727-131.630545-22.248727-107.52 0-321.722182 34.257455-382.417455 76.520727a40.587636 40.587636 0 0 0-17.687272 33.233455V406.341818c0 12.474182 10.705455 27.927273 20.666181 35.84 14.522182 11.636364 31.185455 26.437818 110.405819 81.175273 92.066909 63.674182 93.090909 75.589818 130.978909 135.261091 0 0 46.638545 108.544 49.152 115.339636 34.722909 93.649455 150.248727 69.073455 163.002182-28.206545 7.540364-57.250909-14.894545-105.658182-28.858182-154.996364-13.032727-45.614545-22.341818-70.469818-26.065455-97.000727 49.058909 4.189091 142.242909 19.921455 170.356364 18.152727 95.138909-6.050909 151.738182-44.311273 114.874182-174.173091zM126.603636 477.556364c38.167273 0 68.887273-29.789091 68.887273-66.653091v-402.804364a67.770182 67.770182 0 0 0-68.887273-66.56 67.770182 67.770182 0 0 0-68.887272 66.56V410.996364c0 36.770909 30.906182 66.653091 68.887272 66.653091z"  horiz-adv-x="1024" />

    
    <glyph glyph-name="paizhao" unicode="&#58950;" d="M870.4 601.6c-12.8 12.8-25.6 19.2-38.4 19.2-12.8 0-25.6-6.4-38.4-19.2-12.8-12.8-12.8-25.6-12.8-38.4h108.8c0 19.2-6.4 32-19.2 38.4zM230.4 748.8H128C64 748.8 19.2 697.6 19.2 633.6v-588.8c0-64 51.2-115.2 108.8-115.2h768c64 0 108.8 51.2 108.8 115.2V633.6c0 64-51.2 115.2-108.8 115.2H512c-25.6 0-38.4-19.2-38.4-44.8s12.8-38.4 38.4-38.4h384c12.8 0 25.6-12.8 25.6-32v-588.8c0-19.2-12.8-32-25.6-32H128c-12.8 0-25.6 12.8-25.6 32V633.6c0 19.2 12.8 32 25.6 32h102.4c25.6 0 38.4 19.2 38.4 44.8s-12.8 38.4-38.4 38.4zM512 544C390.4 544 288 441.6 288 320s102.4-224 224-224 224 102.4 224 224S633.6 544 512 544z m0-371.2c-76.8 0-147.2 64-147.2 147.2 0 83.2 64 147.2 147.2 147.2s147.2-64 147.2-147.2-70.4-147.2-147.2-147.2zM262.4 755.2h204.8c12.8 0 25.6 12.8 25.6 25.6v25.6c-6.4 12.8-12.8 25.6-32 25.6H262.4c-12.8 0-25.6-12.8-25.6-25.6v-25.6c0-12.8 12.8-25.6 25.6-25.6z"  horiz-adv-x="1024" />

    
    <glyph glyph-name="yujing" unicode="&#58948;" d="M493.381818 672.581818h46.545455c9.309091 0 27.927273 9.309091 27.927272 27.927273V849.454545c0 9.309091-9.309091 27.927273-27.927272 27.927273h-46.545455c-9.309091 0-27.927273-9.309091-27.927273-27.927273v-148.945454c0-9.309091 9.309091-27.927273 27.927273-27.927273z m-325.818182-65.163636c18.618182-18.618182 46.545455-18.618182 74.472728 0 18.618182 18.618182 18.618182 46.545455 0 74.472727l-74.472728 65.163636c-18.618182 18.618182-46.545455 18.618182-74.472727 0s-18.618182-46.545455 0-74.472727l74.472727-65.163636z m781.963637-670.254546H83.781818c-9.309091 0-18.618182-9.309091-18.618182-18.618181v-27.927273c0-9.309091 9.309091-18.618182 18.618182-18.618182h865.745455c9.309091 0 18.618182 9.309091 18.618182 18.618182v27.927273c-9.309091 18.618182-9.309091 18.618182-18.618182 18.618181zM167.563636 67.490909c0-18.618182 18.618182-37.236364 27.927273-37.236364h623.709091c18.618182 0 27.927273 18.618182 27.927273 27.927273V262.981818c0 186.181818-158.254545 335.127273-344.436364 335.127273S167.563636 449.163636 167.563636 262.981818v-195.490909z m93.090909 214.109091s9.309091 74.472727 27.927273 102.4c18.618182 27.927273 46.545455 55.854545 46.545455 55.854545 9.309091 9.309091 27.927273 18.618182 37.236363 9.309091 9.309091-9.309091 27.927273-18.618182 9.309091-37.236363 0 0-27.927273-18.618182-46.545454-46.545455-18.618182-37.236364-27.927273-111.709091-27.927273-111.709091-9.309091-18.618182-27.927273-9.309091-37.236364-9.309091-9.309091 9.309091-9.309091 9.309091-9.309091 37.236364z m605.09091 325.818182l74.472727 74.472727c18.618182 18.618182 18.618182 46.545455 0 74.472727s-55.854545 9.309091-74.472727-9.309091l-74.472728-74.472727c-18.618182-18.618182-18.618182-46.545455 0-65.163636 18.618182-18.618182 55.854545-18.618182 74.472728 0z"  horiz-adv-x="1024" />

    
    <glyph glyph-name="guanzhu1" unicode="&#58949;" d="M572.043832 807.790763l4.798927-4.798927 3.199284 3.199285C642.428094 866.977529 719.210926 892.571807 799.193043 895.771091c180.759583 6.398569 375.915948-142.368167 350.32167-383.914159-3.199285-30.393204-12.797139-83.181401-17.596066-94.378897-4.798927-12.797139-19.195708-30.393204-36.791773-30.393205-20.79535 0-36.791774 17.596066-36.791774 36.791774 0 6.398569 3.199285 17.596066 3.199285 17.596065 7.998212 23.994635 9.597854 47.98927 12.797138 70.384263 17.596066 164.76316-110.375321 311.930254-276.738123 308.73097-70.384263-1.599642-139.168883-43.190343-190.357437-92.779255l-4.798927-4.798927-25.594277-25.594278-25.594277 25.594278c-52.788197 51.188555-135.969598 97.578182-207.953503 97.578182-151.966021 0-279.937408-143.96781-267.140269-299.133116 11.197496-214.352072 348.722028-481.492341 502.287691-582.269808 11.197496-6.398569 17.596066-17.596066 17.596066-30.393204 0-20.79535-15.996423-36.791774-36.791774-36.791774-6.398569 0-19.195708 4.798927-19.195708 4.798927s-1.599642 0-1.599642 1.599642C415.278883-40.019672 32.964367 244.716663 2.571162 518.255501-19.82383 684.618304 104.948271 892.571807 343.294979 895.771091c78.382474 3.199285 164.76316-27.19392 228.748853-87.980328z m342.323458-443.100925c22.394993 0 41.590701-17.596066 41.590701-41.590701v-137.56924h134.369956c22.394993 0 39.991058-17.596066 39.991058-41.590701 0-17.596066-9.597854-33.592489-25.594277-38.391416l-3.199285-1.599642h-147.167094v-137.569241c0-22.394993-15.996423-39.991058-38.391416-41.5907H912.767648c-17.596066 0-33.592489 11.197496-39.991058 28.793562v150.366379h-147.167095c-15.996423 4.798927-27.19392 22.394993-27.193919 39.991058 0 22.394993 15.996423 39.991058 38.391416 41.590701h137.56924V335.896276c4.798927 15.996423 19.195708 27.19392 36.791774 28.793562h3.199284z"  horiz-adv-x="1152" />

    
    <glyph glyph-name="quxiaojinmai" unicode="&#58947;" d="M512 896C230.4 896 0 665.6 0 384s230.4-512 512-512 512 230.4 512 512S793.6 896 512 896z m0-981.333333C251.733333-85.333333 42.666667 123.733333 42.666667 384S251.733333 853.333333 512 853.333333s469.333333-209.066667 469.333333-469.333333-209.066667-469.333333-469.333333-469.333333zM533.333333 298.666667c76.8 0 140.8 55.466667 153.6 132.266666H524.8c-12.8 4.266667-17.066667 12.8-17.066667 29.866667v4.266667c0 12.8 12.8 25.6 21.333334 25.6h157.866666V546.133333h-153.6c-17.066667 0-29.866667 12.8-29.866666 29.866667s12.8 29.866667 29.866666 29.866667h136.533334c-25.6 51.2-76.8 85.333333-136.533334 85.333333-85.333333 0-153.6-68.266667-153.6-153.6v-93.866667c4.266667-85.333333 72.533333-145.066667 153.6-145.066666zM750.933333 490.666667c-12.8 0-21.333333-8.533333-21.333333-21.333334v-21.333333c0-106.666667-89.6-196.266667-196.266667-196.266667S337.066667 341.333333 337.066667 448V469.333333c0 12.8-8.533333 21.333333-21.333334 21.333334s-21.333333-8.533333-21.333333-21.333334v-21.333333c0-123.733333 98.133333-226.133333 217.6-238.933333v-42.666667H401.066667c-12.8 0-21.333333-8.533333-21.333334-21.333333s8.533333-21.333333 21.333334-21.333334h264.533333c12.8 0 21.333333 8.533333 21.333333 21.333334s-8.533333 21.333333-21.333333 21.333333H554.666667v42.666667c123.733333 12.8 217.6 115.2 217.6 238.933333V469.333333c4.266667 12.8-8.533333 21.333333-21.333334 21.333334z"  horiz-adv-x="1024" />

    
    <glyph glyph-name="maikefeng" unicode="&#58944;" d="M832 595.2c-22.4 0-41.6-19.2-41.6-41.6v-128c0-153.6-124.8-278.4-278.4-278.4s-278.4 124.8-278.4 278.4v128c0 22.4-16 41.6-41.6 41.6S153.6 576 153.6 553.6v-128c0-185.6 137.6-339.2 320-358.4v-86.4H361.6c-22.4 0-41.6-19.2-41.6-41.6s19.2-41.6 41.6-41.6h288c22.4 0 41.6 19.2 41.6 41.6s-19.2 41.6-41.6 41.6h-96v86.4c179.2 19.2 320 172.8 320 358.4v128c-3.2 22.4-19.2 41.6-41.6 41.6zM515.2 224c102.4 0 188.8 83.2 188.8 188.8V684.8C704 790.4 620.8 873.6 515.2 873.6 412.8 873.6 326.4 790.4 326.4 684.8v-272c0-105.6 83.2-188.8 188.8-188.8z"  horiz-adv-x="1024" />

    
    <glyph glyph-name="wangsujiance" unicode="&#58945;" d="M512 896c282.794667 0 512-229.248 512-512s-229.248-512-512-512C229.205333-128 0 101.248 0 384 0 666.794667 229.205333 896 512 896z m104.576-320.64c-16.64 4.693333-33.749333-5.717333-38.229333-23.381333l-75.221334-296.874667A95.658667 95.658667 0 0 1 416 160a96 96 0 1 1 192 0c0 33.792-17.536 63.36-43.904 80.469333l74.581333 294.442667c4.437333 17.578667-5.418667 35.754667-22.101333 40.448zM512 736a352 352 0 0 1-351.829333-341.248L160 384h64a288 288 0 0 0 575.829333 10.112l0.170667-10.112h64A352 352 0 0 1 512 736z"  horiz-adv-x="1024" />

    
    <glyph glyph-name="shexiangtou" unicode="&#58946;" d="M331.282963 460.875852c0 101.338074 84.80237 183.48563 189.402074 183.485629 104.675556 0 189.44-82.147556 189.44-183.485629s-84.80237-183.48563-189.44-183.48563c-104.599704 0-189.402074 82.147556-189.402074 183.48563m615.575704 0C946.858667 688.924444 756.015407 873.737481 520.722963 873.737481S94.511407 688.924444 94.511407 460.875852c0-195.242667 140.022519-358.362074 328.05926-401.294222a35.271111 35.271111 0 0 0 27.117037-34.512593c0-19.721481-16.19437-35.764148-36.143408-35.764148H281.41037c-24.76563 0-44.752593-19.835259-44.752592-44.373333v-2.920297c0-24.500148 19.986963-44.373333 44.752592-44.373333h478.663111c24.76563 0 44.828444 19.873185 44.828445 44.373333v2.958222c0 24.500148-20.062815 44.335407-44.828445 44.335408h-132.209777a35.991704 35.991704 0 0 0-36.181334 35.726222c0 16.346074 11.07437 30.947556 27.192889 34.550519 187.998815 42.932148 327.983407 206.051556 327.983408 401.294222M449.34637 452.645926c0-36.295111 30.226963-65.763556 67.508149-65.763556 37.243259 0 67.470222 29.468444 67.470222 65.801482 0 23.514074-12.894815 45.24563-33.754074 57.002667a69.025185 69.025185 0 0 1-67.508148 0c-20.859259-11.757037-33.716148-33.488593-33.716149-57.002667"  horiz-adv-x="1024" />

    
    <glyph glyph-name="erweimadenglu" unicode="&#58942;" d="M1024 353.874581H542.108903V-128H1024V353.874581z m-120.468645-361.405936H662.594065V233.405935h240.93729v-240.93729zM481.874581-128V353.891097H0V-128h481.874581zM120.468645 233.405935h240.93729v-240.93729H120.468645V233.405935z m722.828387-60.234322h-120.468645v-120.468645h120.468645v120.468645zM1024 896H542.125419v-481.874581H1024V896z m-120.468645-361.405935H662.594065V775.531355h240.93729v-240.93729zM180.686452 52.686452h120.468645v120.468645h-120.468645v-120.468645zM481.891097 896h-120.485162v-120.468645h120.485162V896z m-120.485162-361.405935V775.531355h-120.468645v-240.93729h120.468645zM120.468645 775.531355h120.468645V896H0v-240.93729h120.468645V775.531355z m0-240.93729H0v-120.468646h120.468645v120.468646z m361.422452-120.468646v120.468646h-120.485162v-120.468646h120.485162z m361.405935 301.171613h-120.468645v-120.468645h120.468645v120.468645z"  horiz-adv-x="1024" />

    
    <glyph glyph-name="diannaodenglu" unicode="&#58943;" d="M1094.099088 54.128281H741.771228v-91.082106l74.159158-72.829754V-128H333.78807v18.198456l74.159158 72.829755v91.10007H55.619368C24.899368 54.128281 0 78.578526 0 108.813474V837.290667C0 867.471719 24.881404 891.93993 55.619368 891.93993h1038.47972C1124.837053 891.93993 1149.754386 867.489684 1149.754386 837.290667V108.777544c0-30.181053-24.917333-54.649263-55.655298-54.649263zM1075.577263 817.762807H74.177123v-611.956772h1001.40014V817.762807z"  horiz-adv-x="1149" />

    
    <glyph glyph-name="jiangcheng" unicode="&#58941;" d="M770.048 809.984c-36.864 36.864-86.016 61.44-139.264 61.44H393.216c-53.248 0-102.4-20.48-139.264-61.44C106.496 805.888 24.576 740.352 24.576 621.568c0-114.688 81.92-217.088 192.512-241.664 32.768-139.264 126.976-229.376 253.952-241.664v-45.056H348.16c-45.056 0-81.92-45.056-81.92-98.304s40.96-98.304 90.112-98.304H675.84c49.152 0 90.112 45.056 90.112 98.304s-40.96 98.304-90.112 98.304h-122.88v45.056c126.976 12.288 221.184 102.4 253.952 241.664 110.592 24.576 192.512 126.976 192.512 241.664 0 118.784-81.92 184.32-229.376 188.416zM815.104 732.16c73.728-12.288 106.496-45.056 106.496-110.592 0-69.632-40.96-131.072-106.496-155.648V683.008c4.096 16.384 4.096 32.768 0 49.152zM393.216 15.36h237.568c28.672 0 53.248-12.288 53.248-20.48s-20.48-20.48-53.248-20.48H393.216c-32.768 0-53.248 12.288-53.248 20.48 0 12.288 24.576 20.48 53.248 20.48zM282.624 683.008c0 61.44 49.152 110.592 110.592 110.592h237.568c61.44 0 110.592-49.152 110.592-110.592v-180.224c0-180.224-86.016-290.816-229.376-290.816-143.36 0-229.376 110.592-229.376 290.816V683.008z m-77.824-217.088C143.36 490.496 102.4 556.032 102.4 621.568c0 65.536 32.768 98.304 106.496 110.592-4.096-16.384-4.096-32.768-4.096-49.152V465.92z"  horiz-adv-x="1024" />

    
    <glyph glyph-name="shouqijiantou" unicode="&#58936;" d="M1123.923674 852.194564c-28.634346 25.56638-67.495244 49.854441-104.310831 42.440191-36.815588 5.36894-71.585865-20.453104-100.220211-42.440191L33.773222 50.944208a97.152245 97.152245 0 0 1 0-147.26235 125.275263 125.275263 0 0 1 163.624833 0L1021.658153 665.815652 1847.963562-96.062478a125.275263 125.275263 0 0 1 163.624833 0 97.152245 97.152245 0 0 1 0 147.26235L1123.923674 852.450228z"  horiz-adv-x="2048" />

    
    <glyph glyph-name="xialajiantou" unicode="&#58940;" d="M1125.308764-84.143138c-28.669635-25.597888-67.578425-49.915882-104.439384-42.492495-36.860959-5.375557-71.674087 20.478311-100.343721 42.492495L33.814812 718.094677a97.271975 97.271975 0 0 0 0 147.443836 125.429652 125.429652 0 0 0 163.826485 0L1022.917211 102.465467 1850.240957 865.282534a125.429652 125.429652 0 0 0 163.826485 0 97.271975 97.271975 0 0 0 0-147.443836L1125.308764-84.399117z"  horiz-adv-x="2048" />

    
    <glyph glyph-name="xianshi2" unicode="&#58937;" d="M636.60901063 279.56210531c-57.82736812 0-104.84210531 47.19157875-104.84210532 105.19578938 0 58.00421062 47.01473719 105.22105219 104.84210532 105.22105312a105.34736813 105.34736813 0 0 0 105.19578937-105.22105312 105.32210531 105.32210531 0 0 0-105.19578937-105.19578938m0 333.97894688c-126.13894781 0-228.7831575-102.64421062-228.78315844-228.7831575 0-126.13894781 102.64421062-228.75789469 228.78315843-228.75789469 126.13894781 0 228.75789469 102.61894781 228.75789469 228.75789469 0 126.13894781-102.61894781 228.7831575-228.75789468 228.7831575M636.60901063 29.077894689999994c-317.05263188 0-447.36 267.73894781-479.64631594 349.59157875a19.45263187 19.45263187 0 0 0-0.05052656 13.81894781C189.93111594 474.39157875 321.83006281 740.4631575 636.60901063 740.4631575c317.05263188 0 447.33473719-267.73894781 479.62105218-349.59157875a19.25052656 19.25052656 0 0 0 0.15157969-13.64210531c-32.91789469-81.65052656-164.76631594-348.12631594-479.74736906-348.12631594m594.51789468 407.49473719c-22.68631594 54.26526281-74.4 159.00631594-166.02947343 250.50947343C947.57322125 804.48 803.39637875 864 636.60901063 864 261.12269469 864 95.77532656 565.0863159400001 41.91427344 436.19368406a139.68 139.68 0 0 1 0.15157875-103.25052656C95.77532656 204.42947344000004 261.12269469-94.48421063 636.60901063-94.48421063c166.78736813 0 310.98947344 59.52 428.51368406 176.91789469 91.62947344 91.47789469 143.3431575 196.21894781 166.23157875 250.96421063a139.78105219 139.78105219 0 0 1-0.20210532 103.14947344"  horiz-adv-x="1293" />

    
    <glyph glyph-name="yincang" unicode="&#59227;" d="M1389.32282984 416.07963891l94.30554565-136.69649707a50.84049917 50.84049917 0 1 0-83.63620146-57.71470749l-107.69593063 156.10181434c-52.41583858-16.18303213-108.12556866-26.56595097-165.69706349-30.43269317v-186.17647584a50.84049917 50.84049917 0 0 0-101.68099835 1e-8v186.17647584a728.52287121 728.52287121 0 0 0-165.6970635 30.36108683L751.52518743 221.66843434999998a50.84049917 50.84049917 0 0 0-83.63620145 57.71470749l94.30554564 136.69649707C682.4966787 455.17669884 614.61387134 509.3110895 565.20549892 575.04570674A50.84049917 50.84049917 0 0 0 646.47869125 636.05430575C732.76432716 521.0545287499999 895.16749916 447.22839546 1075.75868073 447.22839546c180.59118156 0 342.99435356 73.82613329 429.27998947 188.82591029a50.84049917 50.84049917 0 0 0 81.27319234-61.00859901c-49.3367661-65.73461723-117.29117978-119.86900791-196.9890327-158.96606783z"  horiz-adv-x="2048" />

    
    <glyph glyph-name="jinmai" unicode="&#58939;" d="M512 896C230.4 896 0 665.6 0 384c0-134.4 51.2-256 134.4-345.6l32-32C256-76.8 377.6-128 512-128c281.6 0 512 230.4 512 512s-230.4 512-512 512zM44.8 384C44.8 646.4 256 851.2 512 851.2c121.6 0 230.4-44.8 313.6-121.6L640 544H531.2c-12.8 0-25.6 12.8-25.6 32s12.8 32 32 32h134.4c-25.6 51.2-76.8 83.2-134.4 83.2-89.6-6.4-160-70.4-160-153.6V435.2c0-38.4 25.6-76.8 51.2-102.4l-25.6-32c-38.4 38.4-64 89.6-64 147.2v19.2c0 12.8-12.8 19.2-19.2 19.2-12.8 0-19.2-12.8-19.2-19.2V448c-6.4-70.4 19.2-128 70.4-172.8l-204.8-204.8C89.6 153.6 44.8 262.4 44.8 384z m480 44.8c-12.8 6.4-19.2 12.8-19.2 25.6v6.4c0 12.8 12.8 25.6 32 25.6h51.2l-64-57.6z m-12.8-512c-121.6 0-230.4 44.8-313.6 121.6l211.2 211.2c32-19.2 64-32 108.8-38.4v-44.8H403.2c-12.8 0-19.2-12.8-19.2-19.2 0-12.8 12.8-19.2 19.2-19.2h262.4c12.8 0 19.2 12.8 19.2 19.2 0 12.8-12.8 19.2-19.2 19.2H556.8v44.8c121.6 12.8 217.6 115.2 217.6 236.8v19.2c0 12.8-12.8 19.2-19.2 19.2s-19.2-12.8-19.2-19.2V448c0-108.8-89.6-198.4-198.4-198.4-32 0-70.4 12.8-96 25.6l32 32c19.2-6.4 38.4-12.8 64-12.8 76.8 0 140.8 57.6 153.6 134.4H588.8l57.6 57.6h44.8v44.8L864 704c76.8-83.2 121.6-192 121.6-313.6-6.4-268.8-211.2-473.6-473.6-473.6z"  horiz-adv-x="1024" />

    
    <glyph glyph-name="guanbishexiangtou" unicode="&#58938;" d="M512-128c281.6 0 512 230.4 512 512s-230.4 512-512 512-512-230.4-512-512 230.4-512 512-512z m0 44.8C249.6-83.2 44.8 128 44.8 384S249.6 851.2 512 851.2 979.2 640 979.2 384s-204.8-467.2-467.2-467.2zM851.2 748.8L172.8 32l32-25.6L876.8 723.2zM665.6 288l96-57.6c32-19.2 57.6-6.4 57.6 32V512c0 38.4-25.6 51.2-57.6 32l-89.6-57.6-6.4-198.4z m-128 294.4H275.2c-51.2 0-89.6-38.4-89.6-89.6v-204.8c0-51.2 38.4-89.6 89.6-89.6h268.8c51.2 0 89.6 38.4 89.6 89.6V486.4c0 51.2-44.8 96-96 96z m-51.2-217.6l-115.2-64c-12.8-6.4-25.6 0-25.6 12.8V448c0 19.2 12.8 25.6 25.6 12.8l115.2-64c12.8-6.4 12.8-19.2 0-32z"  horiz-adv-x="1024" />

    
    <glyph glyph-name="dianhua" unicode="&#58934;" d="M922.069695-100.061165c-74.162248-75.113047-351.42959-2.925532-624.8206 269.148989C22.980424 442.332558-47.378632 719.380484 28.831489 793.542733c64.361715 64.361715 143.42423 177.506684 260.591806 30.206123 117.167576-147.300561 60.558522-187.234079-7.825799-253.643667-46.80852-45.784583 51.781925-162.879021 152.347104-264.32186 102.466775-100.492041 218.683553-198.936209 264.541275-152.127689 67.360385 67.287247 108.390979 123.823162 252.839145 7.752661 147.446837-118.996034 35.179528-198.936209-29.255325-261.396327z"  horiz-adv-x="1024" />

    
    <glyph glyph-name="dizhi" unicode="&#58935;" d="M912.896 482.56C912.896 710.976 730.496 896 505.6 896 280.64 896 98.304 710.912 98.304 482.56c0-7.232 0.704-14.208 1.088-21.312-0.32-3.52-1.088-6.848-1.088-10.432 0-254.528 376-542.72 376-542.72s31.296-23.808 62.592 0c31.36 23.936 376 288.192 376 542.72 0 3.584-0.768 6.912-1.088 10.432 0.384 7.104 1.088 14.08 1.088 21.376zM505.6 323.648c-86.528 0-156.608 71.168-156.608 159.04 0 87.744 70.08 158.976 156.608 158.976S662.208 570.368 662.208 482.56c0-87.872-70.08-159.04-156.608-159.04z"  horiz-adv-x="1024" />

    
    <glyph glyph-name="shebeizhenduan" unicode="&#58933;" d="M1016.22857187 179.61142874999996h-69.485715v180.57142875h-370.51428562V478.8571425h306.14857125c11.42857125 0 20.57142844 9.28000031 20.57142937 20.66285719V839.77142812a20.70857156 20.70857156 0 0 1-20.29714312 21.07428657H182.62857125a20.70857156 20.70857156 0 0 1-20.57142844-20.61714281v-340.34285719a20.70857156 20.70857156 0 0 1 20.57142844-21.02857219h306.14857125v-118.71999937H118.26285688v-180.57142875H48.77714281a10.33142812 10.33142812 0 0 1-10.24000031-10.33142907v-226.97142843c0-5.66857125 4.57142813-10.28571469 10.24000031-10.28571375H275.19999969a10.33142812 10.33142812 0 0 1 10.33142906 10.28571375v226.97142843a10.33142812 10.33142812 0 0 1-10.33142906 10.33142907H205.71428563v92.89142812h283.06285687v-92.89142812h-69.48571406a10.33142812 10.33142812 0 0 1-10.24000031-10.33142907v-226.97142843c0-5.66857125 4.57142813-10.28571469 10.24000031-10.28571375h226.42285687a10.33142812 10.33142812 0 0 1 10.24000032 10.28571375v226.97142843c0 5.66857125-4.57142813 10.28571469-10.24000032 10.33142907h-69.48571406v92.89142812h282.97142906v-92.89142812h-69.39428625a10.33142812 10.33142812 0 0 1-10.33142812-10.33142907v-226.97142843c0-5.66857125 4.6171425-10.28571469 10.33142812-10.28571375h226.42285781a10.33142812 10.33142812 0 0 1 10.23999938 10.28571375v226.97142843c0 5.66857125-4.57142813 10.28571469-10.23999938 10.33142907zM203.19999969 18.011428130000013a3.52000031 3.52000031 0 0 0-3.51999938-3.51999938h-75.42857156a3.52000031 3.52000031 0 0 0-3.56571469 3.51999937V93.71428593999997c0 1.92 1.60000031 3.52000031 3.52000031 3.51999937h75.47428594c1.92 0 3.52000031-1.60000031 3.51999938-3.51999937v-75.70285782z m370.42285781-1e-8a3.52000031 3.52000031 0 0 0-3.42857156-3.51999937H494.62857125a3.52000031 3.52000031 0 0 0-3.47428594 3.51999937V93.71428593999997c0 1.92 1.50857156 3.47428594 3.38285719 3.51999937h75.61142906c1.87428563 0 3.42857156-1.55428594 3.42857157-3.474285V18.011428130000013zM244.29714312 561.4171425v216.68571469h576.31999969v-216.68571469H244.29714312z m699.79428563-543.40571438a3.52000031 3.52000031 0 0 0-3.47428594-3.51999937h-75.42857156a3.52000031 3.52000031 0 0 0-3.47428594 3.51999937V93.71428593999997c-0.04571438 1.92 1.46285719 3.47428594 3.38285719 3.51999937H940.66285719c1.92 0 3.47428594-1.55428594 3.47428594-3.474285v-0.04571437l-0.04571438-75.70285782zM388.43428531 721.37142844a51.61142813 51.61142813 0 1 1 51.42857157-51.74857125V669.71428594c0 28.43428594-22.99428562 51.52000031-51.42857157 51.61142812z"  horiz-adv-x="1072" />

    
    <glyph glyph-name="faxiaoxi" unicode="&#58929;" d="M224 499.2c-12.8-12.8-25.6-32-25.6-51.2 0-19.2 6.4-38.4 19.2-51.2 19.2-12.8 38.4-19.2 57.6-19.2 19.2 0 38.4 6.4 51.2 19.2 12.8 12.8 19.2 32 19.2 51.2 0 19.2-6.4 38.4-19.2 51.2-25.6 25.6-76.8 25.6-102.4 0zM505.6 377.6c19.2 0 38.4 6.4 51.2 19.2 12.8 12.8 19.2 32 19.2 51.2 0 19.2-6.4 38.4-19.2 51.2-12.8 12.8-32 19.2-51.2 19.2-19.2 0-38.4-6.4-51.2-19.2-12.8-12.8-25.6-32-25.6-51.2 0-19.2 6.4-38.4 19.2-51.2 19.2-12.8 38.4-19.2 57.6-19.2zM736 377.6c19.2 0 38.4 6.4 51.2 19.2 12.8 12.8 19.2 32 19.2 51.2 0 19.2-6.4 38.4-19.2 51.2-12.8 12.8-32 19.2-51.2 19.2-19.2 0-38.4-6.4-51.2-19.2-12.8-12.8-19.2-32-19.2-51.2 0-19.2 6.4-38.4 19.2-51.2 12.8-12.8 32-19.2 51.2-19.2zM512 876.8C236.8 876.8 19.2 672 19.2 428.8c0-108.8 44.8-217.6 121.6-294.4V-64c0-19.2 12.8-32 25.6-38.4 6.4 0 12.8-6.4 19.2-6.4 12.8 0 19.2 6.4 25.6 12.8l153.6 128c6.4 6.4 12.8 19.2 19.2 25.6 0 12.8 0 25.6-6.4 32s-19.2 12.8-25.6 19.2c-12.8 0-25.6 0-32-6.4l-83.2-70.4v128c0 12.8-6.4 25.6-12.8 32-70.4 64-108.8 153.6-108.8 249.6 0 198.4 185.6 364.8 409.6 364.8 224 0 409.6-160 409.6-364.8 0-198.4-185.6-364.8-409.6-364.8-12.8 0-19.2-6.4-32-12.8s-12.8-19.2-12.8-32c0-25.6 19.2-44.8 44.8-44.8H512c275.2 0 492.8 204.8 492.8 448S787.2 876.8 512 876.8z"  horiz-adv-x="1024" />

    
    <glyph glyph-name="luxiang" unicode="&#58930;" d="M704 12.8H96c-44.8 0-76.8 38.4-76.8 76.8v576c0 44.8 38.4 76.8 76.8 76.8H704c44.8 0 76.8-38.4 76.8-76.8v-76.8l128 19.2c19.2 6.4 38.4 0 57.6-12.8s32-32 32-51.2v-320c0-44.8-38.4-76.8-76.8-76.8h-12.8l-134.4 32c-25.6 6.4-44.8 32-38.4 57.6 6.4 25.6 32 44.8 57.6 38.4l115.2-25.6V518.4l-166.4-25.6h-25.6c-6.4 0-12.8 6.4-19.2 6.4 0 12.8 0 12.8-6.4 25.6 0 6.4-6.4 12.8-6.4 12.8V652.8h-576v-544h576c6.4 19.2 25.6 32 44.8 32 25.6 0 51.2-19.2 51.2-51.2 0-38.4-32-76.8-76.8-76.8z m-12.8 83.2z m236.8 428.8c0-6.4 0 0 0 0zM256 576c38.4 0 64-25.6 64-64s-25.6-64-64-64-64 25.6-64 64 25.6 64 64 64z"  horiz-adv-x="1024" />

    
    <glyph glyph-name="biaojijietu" unicode="&#58932;" d="M216.96 26.432c-26.816 0-62.528 35.712-62.528 62.528v563.2H69.504c-26.88 0-49.216 17.92-49.216 44.736 0 26.816 22.4 44.672 49.216 44.672h84.928V826.496c0 26.88 17.92 49.216 44.672 49.216 26.88 0 44.736-22.4 44.736-49.216V115.84h710.656c26.88 0 49.216-17.92 49.216-44.736 0-26.816-22.4-44.672-49.216-44.672h-84.928v-84.928c0-26.88-17.856-49.216-44.672-49.216-26.88 0-44.736 22.4-44.736 49.216v84.928h-563.2zM833.92 737.088c17.856 0 35.712-22.336 35.712-35.712v-523.008c0-17.92-26.816-31.296-44.672-31.296-17.92 0-44.736 13.44-44.736 31.36V652.16H346.624c-17.92 0-31.296 26.88-31.296 44.736 0 17.92 13.44 44.672 31.296 44.672h478.272l8.96-4.48z"  horiz-adv-x="1024" />

    
    <glyph glyph-name="jieshuzhibo" unicode="&#58927;" d="M512 896a512 512 0 1 0 0-1024A512 512 0 0 0 512 896z m192-320H320v-384h384V576z"  horiz-adv-x="1024" />

    
    <glyph glyph-name="faqizhibo" unicode="&#58928;" d="M1134.49759633 193.18269267999995l185.17067276-112.93269268c59.84134634-36.8004809 108.58413455-7.13942275 108.58413456 67.24038455l-2.59615365 490.28365366c-0.71394268 74.18509634-50.23557724 103.84615366-110.59615367 67.88942358l-180.04326909-108.38942358v-403.76682642h-0.64903904c0.12980732 0 0.12980732-0.3245191 0.12980813-0.3245191zM885.59134633 771.34615366H358.31249999A179.65384634 179.65384634 0 0 1 179.04807723 591.4326926900001v-407.01201993a179.65384634 179.65384634 0 0 1 179.26442276-179.91346097h527.53846179a179.65384634 179.65384634 0 0 1 179.32932642 179.91346096V591.17307724c0 99.30288455-80.48076911 180.17307724-179.58894187 180.17307642zM772.46394267 350.63942276L546.79326909 220.37740366000003c-28.29807725-16.03125001-51.46875001-2.59615366-51.46875 29.72596179V511.21153821c0 32.90625001 23.68990366 45.75721179 51.46875 29.72596179L772.46394267 409.96153821c28.1682691-16.29086545 27.77884634-43.35576911 0-59.38701911z"  horiz-adv-x="1575" />

    
    <glyph glyph-name="xuanyixuan" unicode="&#58923;" d="M832-128H192c-108.8 0-192 89.6-192 192V704c0 108.8 89.6 192 192 192h640c108.8 0 192-89.6 192-192v-640c0-102.4-89.6-192-192-192zM192 800c-51.2 0-96-44.8-96-96v-640c0-51.2 44.8-96 96-96h640c51.2 0 96 44.8 96 96V704c0 51.2-44.8 96-96 96H192zM633.6 345.6L544 595.2 454.4 345.6h179.2z m-128 332.8h89.6l204.8-563.2h-83.2l-57.6 166.4H435.2l-64-166.4H294.4l211.2 563.2zM236.8 659.2m-70.4 0a70.4 70.4 0 1 1 140.8 0 70.4 70.4 0 1 1-140.8 0Z"  horiz-adv-x="1024" />

    
    <glyph glyph-name="hongbao" unicode="&#58926;" d="M773.688889 662.7555560000001c-5.688889 11.377778-17.066667 17.066667-28.444445 22.755555-11.377778 5.688889-22.755556 0-34.133333-5.688889-73.955556-45.511111-136.533333-62.577778-199.111111-62.577778-51.2 0-102.4 22.755556-176.355556 62.577778-11.377778 5.688889-28.444444 5.688889-45.511111 0-17.066667-11.377778-22.755556-22.755556-22.755555-39.822222 0-17.066667 5.688889-28.444444 22.755555-39.822222 62.577778-34.133333 136.533333-68.266667 216.177778-68.266667h17.066667c73.955556 0 147.911111 22.755556 233.244444 73.955556 17.066667 11.377778 28.444444 34.133333 17.066667 56.888889zM637.155556 190.57777799999997H557.511111v45.511111h79.644445c17.066667 0 28.444444 11.377778 28.444444 28.444444s-11.377778 28.444444-28.444444 28.444445H557.511111v28.444444l79.644445 79.644445c5.688889 5.688889 11.377778 17.066667 5.688888 28.444444 0 11.377778-11.377778 17.066667-17.066666 17.066667-11.377778-5.688889-22.755556-5.688889-28.444445-11.377778L529.066667 366.93333299999995 460.8 435.2c-11.377778 5.688889-28.444444 5.688889-34.133333-5.688889-11.377778-11.377778-11.377778-28.444444 0-39.822222l79.644444-73.955556v-28.444444H426.666667c-5.688889 0-11.377778 0-17.066667-5.688889-11.377778-5.688889-11.377778-11.377778-11.377778-17.066667 0-17.066667 11.377778-28.444444 28.444445-28.444444h79.644444v-45.511111H426.666667c-17.066667 0-28.444444-11.377778-28.444445-28.444445s11.377778-28.444444 28.444445-28.444444h79.644444v-62.577778c0-17.066667 11.377778-28.444444 28.444445-28.444444 5.688889 0 11.377778 5.688889 17.066666 5.688889s5.688889 11.377778 5.688889 17.066666v62.577778h79.644445c17.066667 0 28.444444 11.377778 28.444444 28.444444-5.688889 17.066667-17.066667 28.444444-28.444444 34.133334zM821.4755552 887.65629653H232.86518507C141.8429632 887.65629653 69.02518507 814.8385184 69.02518507 723.81629653v-673.5644448c0-91.02222187 72.81777813-163.84 163.84-163.84H815.40740693c91.02222187 0 163.84 72.81777813 163.84 163.84V723.81629653c6.06814827 91.02222187-66.74962987 163.84-157.77185173 163.84z m0-910.22222293H232.86518507c-42.4770368 0-72.81777813 30.34074027-72.81777814 72.81777813V723.81629653c0 36.40888853 30.34074027 72.81777813 72.81777814 72.81777707H815.40740693c42.4770368 0 72.81777813-30.34074027 72.81777814-72.81777707v-673.5644448c0-42.4770368-30.34074027-72.81777813-66.74962987-72.81777813z"  horiz-adv-x="1024" />

    
    <glyph glyph-name="shifou" unicode="&#58924;" d="M470.33725466-103.90588201000003H175.18431366c-66.258824 0-120.470588 54.211765-120.470588 120.47058802V763.482353c0 66.258824 54.211765 120.470588 120.470588 120.470588h680.658824c66.258824 0 120.470588-54.211765 120.470588-120.470588v-355.38823501c0-24.09411801-24.09411801-48.188235-48.188235-48.188236s-42.16470601 24.09411801-42.164706 48.18823602V763.482353c0 12.047059-12.047059 24.09411801-24.094118 24.094118H175.18431366c-12.047059 0-24.09411801-12.047059-24.094118-24.094118v-740.894118c0-18.070588 12.047059-30.117647 24.094118-30.117647h295.152941c24.09411801 0 48.188235-24.09411801 48.188236-48.188235s-18.070588-48.188235-48.188236-48.18823501zM307.70196066 540.611765h427.670588c24.09411801 0 42.16470601 18.070588 42.164706 42.164706s-18.070588 42.16470601-42.164706 42.164705H307.70196066c-24.09411801 0-42.16470601-18.070588-42.164706-42.164705s18.070588-42.16470601 42.164706-42.164706zM307.70196066 305.69411801h259.011765c24.09411801 0 42.16470601 18.070588 42.164706 42.16470599 0 24.09411801-18.070588 42.16470601-42.164706 42.164705H307.70196066c-24.09411801 0-42.16470601-18.070588-42.164706-42.164705 0-24.09411801 18.070588-42.16470601 42.164706-42.16470599zM994.38431366 233.41176499999995c-18.070588 18.070588-54.211765 18.070588-72.282353 0l-222.870588-222.870589-120.470588 120.470589c-18.070588 18.070588-54.211765 18.070588-72.282353 0-12.047059-12.047059-18.070588-24.09411801-18.070589-36.141177 0-12.047059 6.023529-24.09411801 18.070589-36.141176l156.611764-156.611765c12.047059-12.047059 24.09411801-18.070588 36.141177-18.070588 12.047059 0 24.09411801 6.023529 36.141176 18.070588l259.011765 259.011765c18.070588 24.09411801 18.070588 54.211765 0 72.282353z"  horiz-adv-x="1024" />

    
    <glyph glyph-name="tianyitian" unicode="&#58925;" d="M968.53333333 836.26666667c-25.6 25.6-57.6 38.4-89.6 38.4H155.73333333C85.33333333 874.66666667 27.73333333 817.06666667 27.73333333 746.66666667v-716.8c0-70.4 57.6-128 128-128h723.2c70.4 0 128 57.6 128 128V746.66666667c0 32-12.8 64-38.4 89.6zM123.73333333 746.66666667c0 19.2 12.8 32 32 32h723.2c19.2 0 32-12.8 32-32v-723.2c0-19.2-12.8-32-32-32H155.73333333c-19.2 0-32 12.8-32 32V746.66666667zM226.13333333 132.26666666999995c-19.2 0-32-12.8-32-32s12.8-32 32-32h192c19.2 0 32 12.8 32 32s-12.8 32-32 32h-64v512h64c19.2 0 32 12.8 32 32s-12.8 32-32 32h-192c-19.2 0-32-12.8-32-32s12.8-32 32-32h64v-512h-64zM635.73333333 68.26666666999995c25.6 12.8 38.4 32 38.4 57.6 0 38.4-25.6 64-64 64-25.6 0-51.2-12.8-57.6-38.4-12.8-25.6-6.4-51.2 12.8-70.4 19.2-19.2 44.8-19.2 70.4-12.8z"  horiz-adv-x="1024" />

    
    <glyph glyph-name="shipinyujing" unicode="&#58922;" d="M615.920069 845.720811L278.874108 311.358264h163.334285L311.760206-128l476.848415 660.20668H579.52612z"  horiz-adv-x="1024" />

    
    <glyph glyph-name="zanwuxueyuan" unicode="&#58921;" d="M597.333333 341.333333c256.618667 0 465.130667-205.952 469.269334-461.568L1066.666667-128H0c0 259.2 210.133333 469.333333 469.333333 469.333333h128zM533.333333 896c141.376 0 256-114.624 256-256s-114.624-256-256-256-256 114.624-256 256S391.957333 896 533.333333 896z"  horiz-adv-x="1066" />

    
    <glyph glyph-name="shipinjietu" unicode="&#58919;" d="M985.6 32H204.8c-25.6 0-44.8 19.2-44.8 44.8V851.2c6.4 25.6 19.2 44.8 44.8 44.8 25.6 0 44.8-19.2 44.8-44.8v-736h736c25.6 0 44.8-19.2 44.8-44.8s-25.6-38.4-44.8-38.4z m-166.4-153.6c-25.6 0-44.8 19.2-44.8 44.8V64c0 25.6 19.2 44.8 44.8 44.8s44.8-19.2 44.8-44.8v-140.8c0-25.6-19.2-44.8-44.8-44.8z m0 288c-25.6 0-44.8 19.2-44.8 44.8V652.8H345.6c-25.6 0-44.8 19.2-44.8 44.8 0 25.6 19.2 44.8 44.8 44.8h473.6c25.6 0 44.8-19.2 44.8-44.8v-486.4c0-25.6-19.2-44.8-44.8-44.8zM185.6 652.8H44.8c-25.6 0-44.8 19.2-44.8 44.8 0 25.6 19.2 44.8 44.8 44.8h140.8c25.6 0 44.8-19.2 44.8-44.8s-25.6-44.8-44.8-44.8z"  horiz-adv-x="1030" />

    
    <glyph glyph-name="shipinxianluqiehuan" unicode="&#58920;" d="M823.536941 445.921882h-722.823529c-24.094118 0-48.188235 18.070588-48.188236 48.188236s18.070588 48.188235 48.188236 48.188235h722.823529c42.164706 0 72.282353 30.117647 72.282353 72.282353 0 24.094118-12.047059 42.164706-24.094118 54.211765l-150.588235 126.494117c-24.094118 12.047059-24.094118 42.164706-6.023529 60.235294 12.047059 18.070588 42.164706 24.094118 60.235294 6.02353l150.588235-126.494118c36.141176-30.117647 60.235294-78.305882 60.235294-126.494118 0-90.352941-72.282353-162.635294-162.635294-162.635294zM341.654588-108.242824c-12.047059 0-24.094118 6.023529-30.117647 12.047059l-138.541176 132.517647c-30.117647 30.117647-54.211765 72.282353-54.211765 120.470589 0 90.352941 72.282353 162.635294 162.635294 162.635294h656.564706c24.094118 0 48.188235-18.070588 48.188235-48.188236s-18.070588-42.164706-42.164706-42.164705h-662.588235c-36.141176 0-72.282353-36.141176-72.282353-78.305883 0-18.070588 6.023529-42.164706 24.094118-54.211765l138.541176-132.517647c18.070588-18.070588 18.070588-48.188235 0-66.258823-6.023529 0-18.070588-6.023529-30.117647-6.02353z"  horiz-adv-x="1024" />

    
    <glyph glyph-name="quanbuxueyuan" unicode="&#58916;" d="M1078.613333 35.84c0 150.186667-95.573333 279.893333-225.28 327.68 61.44 40.96 102.4 116.053333 102.4 197.973333 0 109.226667-75.093333 204.8-184.32 232.106667h-6.826666c-20.48 0-40.96-20.48-40.96-40.96s13.653333-34.133333 34.133333-40.96h6.826667c61.44-20.48 102.4-75.093333 102.4-143.36 0-75.093333-54.613333-136.533333-122.88-150.186667-20.48 0-40.96-20.48-40.96-47.786666 0-27.306667 20.48-40.96 40.96-47.786667 143.36-13.653333 245.76-136.533333 245.76-286.72 0-20.48 20.48-40.96 40.96-40.96 27.306667 0 47.786667 13.653333 47.786666 40.96z m-477.866666 320.853333c75.093333 47.786667 122.88 136.533333 122.88 232.106667C723.626667 745.813333 593.92 868.693333 436.906667 868.693333 279.893333 868.693333 150.186667 738.986667 150.186667 588.8c0-95.573333 47.786667-184.32 122.88-232.106667C122.88 295.253333 13.653333 145.066667 13.653333-39.253333v-27.306667c0-20.48 20.48-40.96 40.96-40.96s40.96 20.48 40.96 40.96V-59.733333v27.306666c0 191.146667 157.013333 348.16 348.16 348.16s348.16-157.013333 348.16-348.16v-27.306666c0-20.48 20.48-40.96 40.96-40.96s40.96 13.653333 40.96 40.96v27.306666c-6.826667 177.493333-116.053333 327.68-273.066666 389.12z m-163.84 34.133334c-109.226667 0-204.8 88.746667-204.8 204.8 0 109.226667 88.746667 204.8 204.8 204.8 109.226667 0 204.8-88.746667 204.8-204.8s-88.746667-204.8-204.8-204.8z"  horiz-adv-x="1092" />

    
    <glyph glyph-name="sousuo" unicode="&#58918;" d="M716.856062 681.992739a355.82547 355.82547 0 0 1-502.763471 0 355.569481 355.569481 0 0 1 0-502.592811 355.82547 355.82547 0 0 1 502.763471 0 355.569481 355.569481 0 0 1 0 502.592811zM136.271769 102.005755a465.218337 465.218337 0 0 0 657.893136 657.722476 464.791688 464.791688 0 0 0 0-657.551817 465.047677 465.047677 0 0 0-657.893136-0.170659z m868.913853-211.362036a63.144088 63.144088 0 0 0-89.596342 0l-89.596341 89.596341a63.485408 63.485408 0 0 0 0 89.596342 63.570738 63.570738 0 0 0 89.596341 0l89.596342-89.596342a62.717439 62.717439 0 0 0 0-89.596341c0.511979 0.597309 0 0.597309 0 0z"  horiz-adv-x="1024" />

    
    <glyph glyph-name="guanzhu" unicode="&#58917;" d="M1060.141176 534.588235C1054.117647 715.294118 915.576471 871.905882 752.941176 871.905882 674.635294 871.905882 602.352941 835.764706 542.117647 775.529412 481.882353 835.764706 409.6 871.905882 331.294118 871.905882 168.658824 871.905882 30.117647 715.294118 24.094118 528.564706V510.494118c12.047059-433.694118 481.882353-608.376471 499.952941-614.4h24.094117s60.235294 24.094118 138.541177 66.258823c114.447059 66.258824 259.011765 180.705882 331.294118 355.388235 24.094118 60.235294 36.141176 126.494118 42.164705 192.752942v12.047058 6.02353V534.588235z"  horiz-adv-x="1084" />

    
    <glyph glyph-name="laoshi" unicode="&#58914;" d="M742.4-108.8c-166.4-25.6-339.2-25.6-505.6 0-44.8 6.4-83.2 19.2-128 32-57.6 25.6-89.6 70.4-89.6 115.2 6.4 64 32 128 76.8 179.2 51.2 64 115.2 102.4 185.6 128C224 422.4 192 512 192 608c0 76.8 32 147.2 83.2 204.8C396.8 921.6 576 921.6 697.6 812.8c51.2-51.2 83.2-128 83.2-204.8 0-70.4-12.8-140.8-44.8-204.8-12.8-25.6-25.6-44.8-44.8-64 70.4-25.6 134.4-64 185.6-121.6 25.6-25.6 44.8-57.6 57.6-96 12.8-25.6 19.2-57.6 19.2-83.2 0-51.2-32-89.6-89.6-115.2-38.4-12.8-76.8-25.6-121.6-32z m83.2 288c-44.8 51.2-108.8 89.6-179.2 108.8-19.2 0-32 12.8-38.4 32-6.4 19.2 0 38.4 12.8 51.2 19.2 19.2 38.4 44.8 51.2 70.4 25.6 51.2 38.4 108.8 38.4 166.4 0 57.6-19.2 108.8-64 153.6C556.8 844.8 416 844.8 332.8 761.6c-38.4-38.4-64-96-64-153.6-6.4-83.2 25.6-172.8 83.2-236.8 19.2-12.8 19.2-32 19.2-51.2-6.4-19.2-25.6-32-44.8-38.4-70.4-19.2-128-51.2-172.8-102.4-32-38.4-57.6-83.2-57.6-134.4 0-19.2 12.8-38.4 44.8-51.2 32-12.8 70.4-25.6 108.8-32 160-25.6 320-25.6 480 0 38.4 6.4 70.4 12.8 108.8 32 32 12.8 44.8 32 44.8 51.2 0 19.2-6.4 38.4-12.8 57.6-12.8 25.6-25.6 51.2-44.8 76.8z m-339.2-128l-76.8 51.2 51.2 185.6-19.2 25.6v25.6h83.2v-25.6l-12.8-25.6 57.6-185.6-83.2-51.2z"  horiz-adv-x="1024" />

    
    <glyph glyph-name="kechengmingcheng" unicode="&#58915;" d="M729.6 377.6c0-19.2-12.8-32-32-32H326.4c-19.2 0-32 12.8-32 32s12.8 32 32 32h371.2c19.2 0 32-12.8 32-32zM729.6 588.8c0-19.2-12.8-32-32-32H326.4c-19.2 0-32 12.8-32 32s12.8 32 32 32h371.2c19.2 0 32-12.8 32-32zM729.6 160c0-19.2-12.8-32-32-32H326.4c-19.2 0-32 12.8-32 32s12.8 32 32 32h371.2c19.2 0 32-12.8 32-32zM800-108.8h-576c-76.8 0-140.8 64-140.8 140.8v704c0 76.8 64 140.8 140.8 140.8h576c76.8 0 140.8-64 140.8-140.8v-704c0-76.8-64-140.8-140.8-140.8z m-576 896c-25.6 0-51.2-25.6-51.2-51.2v-704c0-25.6 25.6-51.2 51.2-51.2h576c25.6 0 51.2 25.6 51.2 51.2v704c0 25.6-25.6 51.2-51.2 51.2h-576z"  horiz-adv-x="1024" />

    
    <glyph glyph-name="qunfa" unicode="&#58913;" d="M883.2 691.2V576h-64V691.2c0 38.4-25.6 64-64 64H140.8c-38.4 0-64-25.6-64-64v-416c0-38.4 25.6-64 64-64H320v-64H140.8c-70.4 0-128 57.6-128 128V691.2c0 70.4 57.6 128 128 128h614.4c70.4 0 128-57.6 128-128zM870.4 665.6c70.4 0 128-57.6 128-128v-441.6c0-38.4-25.6-64-64-64h-192c-12.8 0-25.6-6.4-38.4-12.8l-83.2-57.6c-19.2-12.8-51.2-12.8-70.4 0l-83.2 57.6c-12.8 6.4-25.6 12.8-38.4 12.8h-192c-38.4 0-64 25.6-64 64V537.6c0 70.4 57.6 128 128 128h569.6zM345.6 428.8h-6.4c-32-6.4-51.2-32-51.2-64s25.6-57.6 57.6-57.6h6.4c32 6.4 51.2 32 51.2 57.6 0 32-25.6 64-57.6 64z m236.8 0l-6.4-6.4c-25.6 0-51.2-25.6-51.2-57.6s25.6-57.6 57.6-57.6h6.4c32 6.4 51.2 32 51.2 57.6 0 32-25.6 64-57.6 64z m236.8 0h-6.4c-32-6.4-51.2-25.6-51.2-57.6s25.6-57.6 57.6-57.6h6.4c32 6.4 51.2 25.6 51.2 57.6 6.4 25.6-25.6 57.6-57.6 57.6z"  horiz-adv-x="1024" />

    
    <glyph glyph-name="ketangxiaobangyang" unicode="&#58912;" d="M805.632 263.936l196.736-184.96-168.512-14.592-35.072-139.52-196.48 185.152a368.832 368.832 0 0 0-204.48-2.688l-194.24-182.4-35.392 139.52L0 78.912l189.376 177.728a368.832 368.832 0 1 0 616.32 7.232zM342.528 522.048a20.224 20.224 0 0 1-10.496-34.56l61.248-57.216a20.288 20.288 0 0 0 6.144-17.856l-12.544-82.688a20.224 20.224 0 0 1 29.696-20.672l73.792 39.936a20.224 20.224 0 0 0 18.752 0l74.752-37.44a20.224 20.224 0 0 1 28.992 21.952L597.12 415.552a20.224 20.224 0 0 0 5.504 17.984l58.752 59.52a20.224 20.224 0 0 1-11.968 34.304l-82.816 10.368a20.224 20.224 0 0 0-15.68 10.816l-38.528 74.24a20.224 20.224 0 0 1-36.352 0l-35.456-75.712a20.224 20.224 0 0 0-15.68-11.392l-82.432-13.632z"  horiz-adv-x="1024" />

    
    <glyph glyph-name="dianzan" unicode="&#58911;" d="M885.824 473.088h-238.464c92.416 341.376-63.744 358.784-63.744 358.784-66.112 0-52.416-52.288-57.408-61.056 0-166.912-177.28-297.728-177.28-297.728v-473.408c0-46.72 63.616-63.552 88.64-63.552h358.4c33.728 0 61.184 88.448 61.184 88.448 88.64 301.44 88.64 391.168 88.64 391.168 0 62.336-59.968 57.344-59.968 57.344zM251.008 472.96H108.16c-29.44 0-29.952-28.992-29.952-28.992l29.504-477.44c0-30.4 30.464-30.4 30.464-30.4H261.76c25.792 0 25.536 20.096 25.536 20.096V436.736c0 36.672-36.288 36.224-36.288 36.224z"  horiz-adv-x="1024" />

    
    <glyph glyph-name="biaoyangdanmu" unicode="&#58910;" d="M588.8 371.2h38.4v-32h-38.4zM1004.8 512h-83.2c-19.2 57.6-51.2 102.4-83.2 147.2h102.4V748.8h-204.8c-76.8 51.2-160 76.8-256 76.8C217.6 825.6 6.4 614.4 6.4 352c0-262.4 211.2-473.6 473.6-473.6 76.8 0 147.2 19.2 211.2 51.2h249.6v89.6h-128c38.4 44.8 76.8 96 96 147.2h89.6V268.8h-64c6.4 25.6 6.4 57.6 6.4 89.6 0 19.2 0 44.8-6.4 64h57.6V512h12.8zM505.6 608c12.8-19.2 19.2-38.4 32-64l-64-19.2c-12.8 25.6-25.6 44.8-32 64l64 19.2zM384 390.4H300.8v-51.2h70.4v-160c0-32-6.4-51.2-19.2-57.6-12.8-12.8-44.8-19.2-89.6-25.6-6.4 25.6-12.8 44.8-25.6 70.4 51.2-6.4 76.8 6.4 70.4 51.2v64h-64V448H320V512H217.6v57.6H384v-179.2z m204.8-211.2v-89.6H518.4v89.6h-128v57.6h128v38.4H409.6V518.4h160c6.4 25.6 25.6 89.6 32 96 12.8 0 38.4-12.8 76.8-25.6l-32-70.4h51.2v-236.8H588.8v-38.4h140.8v-57.6l-140.8-6.4zM588.8 454.4h38.4v-32h-38.4v32zM480 371.2h44.8v-32h-44.8v32z m0 83.2h44.8v-32h-44.8v32z"  horiz-adv-x="1024" />

    
    <glyph glyph-name="songjifen" unicode="&#58909;" d="M87.488 656.064c0-121.6 191.744-220.096 428.288-220.096s428.288 98.56 428.288 220.16C944.064 777.6 752.32 876.16 515.776 876.16S87.488 777.6 87.488 656.064zM515.776 369.728c-174.976 0-325.376 53.952-391.872 131.2-23.424-27.2-36.48-57.28-36.48-88.96 0-121.6 191.808-220.16 428.352-220.16 236.544 0 428.288 98.56 428.288 220.16 0 31.68-12.992 61.76-36.48 88.96-66.432-77.248-216.896-131.2-391.808-131.2zM515.776 119.552c-177.28 0-329.344 55.36-394.432 134.208-21.76-26.368-33.92-55.424-33.92-85.888 0-121.6 191.808-220.16 428.352-220.16 236.544 0 428.288 98.56 428.288 220.16 0 30.464-12.032 59.52-33.856 85.888-65.152-78.848-217.216-134.208-394.432-134.208z"  horiz-adv-x="1024" />

    
    <glyph glyph-name="biaoyangshangqiang" unicode="&#58908;" d="M883.2 832c38.4 0 70.4-32 76.8-64v-601.6c0-38.4-32-76.8-76.8-76.8h-256l147.2-147.2H249.6l147.2 147.2h-256c-38.4 0-70.4 32-76.8 64V755.2C64 800 96 832 140.8 832h742.4zM473.6 761.6H396.8v-531.2h64V499.2c134.4 64 147.2-6.4 230.4 0 83.2 6.4 153.6 70.4 198.4 134.4-134.4-32-198.4-12.8-268.8 70.4-44.8 51.2-83.2 57.6-147.2 57.6z"  horiz-adv-x="1024" />

    
    <glyph glyph-name="kaoqinxiaobiaobing" unicode="&#58907;" d="M960 652.8c0 19.2-19.2 32-38.4 32h-147.2V774.4c0 32-25.6 57.6-57.6 57.6s-57.6-25.6-57.6-57.6v-83.2H377.6V774.4c0 32-25.6 57.6-57.6 57.6s-57.6-25.6-57.6-57.6v-83.2H102.4c-19.2 0-38.4-19.2-38.4-38.4v-633.6c0-44.8 38.4-83.2 83.2-83.2h729.6c44.8 0 83.2 32 83.2 83.2V652.8z m-787.2-44.8h672c12.8 0 25.6-12.8 25.6-25.6v-51.2H147.2v51.2c0 12.8 12.8 25.6 25.6 25.6zM768 300.8l-281.6-262.4c-19.2-19.2-51.2-19.2-70.4 0L256 198.4c-19.2 19.2-19.2 44.8 0 64 19.2 19.2 51.2 19.2 70.4 0L448 140.8l236.8 224c19.2 19.2 51.2 19.2 70.4 0 32-12.8 32-44.8 12.8-64z"  horiz-adv-x="1024" />

    
    <glyph glyph-name="bofang" unicode="&#58885;" d="M512 384m-512 0a512 512 0 1 1 1024 0 512 512 0 1 1-1024 0ZM362.951111 587.6622219999999v-407.779555a56.888889 56.888889 0 0 1 89.543111-45.511111l295.822222 210.488888a56.888889 56.888889 0 0 1 13.312 78.961778 55.409778 55.409778 0 0 1-14.791111 14.336l-295.822222 196.835556a56.888889 56.888889 0 0 1-78.961778-16.042667 55.751111 55.751111 0 0 1-9.557333-31.402667z"  horiz-adv-x="1024" />

    
    <glyph glyph-name="guanbi" unicode="&#58906;" d="M512 464.426667L281.045333 695.466667a42.24 42.24 0 0 1-59.904-0.042667l-20.522666-20.522667a42.24 42.24 0 0 1 0-59.904L431.530667 384 200.533333 153.045333a42.24 42.24 0 0 1 0.042667-59.904l20.522667-20.522666a42.24 42.24 0 0 1 59.904 0L512 303.530667l230.954667-230.997334a42.24 42.24 0 0 1 59.904 0.042667l20.522666 20.522667a42.24 42.24 0 0 1 0 59.904L592.469333 384 823.466667 614.954667a42.24 42.24 0 0 1-0.042667 59.904l-20.522667 20.522666a42.24 42.24 0 0 1-59.904 0L512 464.469333z"  horiz-adv-x="1024" />

    
    <glyph glyph-name="shouqi" unicode="&#58903;" d="M187.733333 115.2l136.533334 136.533333-81.066667 81.066667h217.6v-217.6l-81.066667 81.066667-136.533333-136.533334-55.466667 55.466667z m593.066667-55.466667l55.466667 55.466667-136.533334 136.533333 81.066667 81.066667h-217.6v-217.6l81.066667 81.066667 136.533333-136.533334zM243.2 435.2h217.6V652.8L379.733333 576 243.2 708.266667 187.733333 652.8l136.533334-136.533333-81.066667-81.066667z m537.6 0l-81.066667 81.066667 136.533334 136.533333-55.466667 55.466667-136.533333-136.533334-81.066667 81.066667v-217.6h217.6z"  horiz-adv-x="1024" />

    
    <glyph glyph-name="tuozhuai" unicode="&#58904;" d="M251.733333 742.4V768h51.2v-25.6H251.733333z m102.4 0V768h51.2v-25.6H354.133333z m102.4 0V768h51.2v-25.6h-51.2z m102.4 0V768h51.2v-25.6h-51.2z m102.4 0V768h51.2v-25.6h-51.2z m102.4 0V768h51.2v-25.6h-51.2z m102.4 0V768h76.8v-25.6h-76.8z m85.333334-21.333333l21.333333 12.8c4.266667-8.533333 8.533333-17.066667 8.533333-29.866667v-25.6h-25.6v25.6c0 8.533333 0 12.8-4.266666 17.066667z m4.266666-93.866667h25.6v-51.2h-25.6V627.2z m0-102.4h25.6v-51.2h-25.6V524.8z m0-102.4h25.6v-51.2h-25.6v51.2z m0-102.4h25.6v-51.2h-25.6v51.2z m0-102.4h25.6v-51.2h-25.6v51.2z m-4.266666-93.866667l21.333333-12.8c-8.533333-21.333333-29.866667-34.133333-55.466667-34.133333v25.6c17.066667 0 29.866667 8.533333 34.133334 21.333333z m-81.066667-21.333333v-25.6h-51.2v25.6h51.2z m-102.4 0v-25.6h-51.2v25.6H768z m-102.4 0v-25.6h-51.2v25.6h51.2z m-102.4 0v-25.6H512v25.6h51.2zM213.333333 366.933333h-25.6v51.2H213.333333v-51.2zM213.333333 469.333333h-25.6V520.533333H213.333333V469.333333z m0 102.4h-25.6V622.933333H213.333333v-51.2z m0 102.4h-25.6v29.866667c0 8.533333 0 17.066667 4.266667 25.6l25.6-8.533333c-4.266667-8.533333-4.266667-12.8-4.266667-17.066667v-29.866667z m34.133334 68.266667L243.2 768h8.533333v-25.6h-4.266666zM601.6 388.266667l12.8 12.8 115.2 102.4 51.2-59.733334 29.866667 162.133334c0 8.533333-4.266667 12.8-12.8 17.066666l-162.133334-12.8c-4.266667 0-8.533333 0-12.8-4.266666-4.266667-4.266667-8.533333-12.8 0-21.333334l51.2-59.733333-132.266666-119.466667c-4.266667-8.533333-8.533333-21.333333 0-29.866666v-4.266667c38.4 8.533333 51.2 8.533333 59.733333 17.066667zM64 298.666667c-12.8 0-21.333333-8.533333-21.333333-21.333334v-256c0-12.8 8.533333-21.333333 21.333333-21.333333h384c12.8 0 21.333333 8.533333 21.333333 21.333333v256c0 12.8-8.533333 21.333333-21.333333 21.333334h-384z"  horiz-adv-x="1024" />

    
    <glyph glyph-name="quanping" unicode="&#58905;" d="M459.093333 273.877333l-135.125333-135.509333 79.786667-79.786667h-217.173334v216.832l79.786667-79.786666 135.509333 135.509333 57.258667-57.258667z m163.029334 57.557334l-57.557334-57.6 135.466667-135.466667-79.786667-79.786667h217.173334v216.832l-79.786667-79.786666-135.509333 135.808zM403.413333 709.418667H186.581333v-216.832l79.786667 79.786666 135.509333-135.509333 57.557334 57.6-135.466667 135.168 79.445333 79.786667z m217.173334 0l79.445333-79.786667-135.466667-135.509333 57.6-57.557334 135.466667 135.466667 79.786667-79.786667v217.173334h-216.832z"  horiz-adv-x="1024" />

    
    <glyph glyph-name="pingmusuoxiao" unicode="&#58902;" d="M729.813333 604.330667v-568.661334c0-1.109333-0.725333-2.005333-1.578666-2.005333H120.661333c-0.938667 0-1.664 0.896-1.664 2.005333V604.330667c0 1.109333 0.725333 2.005333 1.621334 2.005333h607.573333c0.896 0 1.621333-0.896 1.621333-2.005333z m34.133334 78.336H84.906667C61.568 682.666667 42.666667 660.010667 42.666667 632.0640000000001v-624.128c0-27.946667 18.901333-50.602667 42.24-50.602667h679.04c23.338667 0 42.24 22.656 42.24 50.602667V632.0640000000001c0 27.946667-18.901333 50.602667-42.24 50.602667zM244.693333 853.333333c-22.954667 0-41.514667-21.888-41.514666-48.896v-131.029333h72.362666V768h606.293334v-531.584h-114.773334v-83.584h145.365334c22.912 0 41.514667 21.888 41.514666 48.896V804.437333c0 27.008-18.602667 48.896-41.514666 48.896H244.693333z"  horiz-adv-x="1024" />

    
    <glyph glyph-name="pomelo" unicode="&#58900;" d="M989.013333 416.298667c8.533333-145.066667-42.666667-298.666667-140.8-401.066667-12.8-12.8-38.4-12.8-51.2 4.266667-17.066667 12.8-17.066667 38.4 0 55.466666 81.066667 89.6 128 217.6 119.466667 341.333334-8.533333 98.133333-51.2 196.266667-119.466667 273.066666-4.266667 4.266667-12.8 12.8-12.8 25.6 0 25.6 21.333333 46.933333 46.933334 42.666667 8.533333 0 17.066667-8.533333 21.333333-12.8 76.8-89.6 128-209.066667 136.533333-328.533333z m-136.533333 4.266666c12.8-110.933333-29.866667-230.4-106.666667-307.2-12.8-12.8-34.133333-12.8-46.933333 4.266667-12.8 12.8-17.066667 38.4-4.266667 51.2 46.933333 51.2 76.8 119.466667 85.333334 192 8.533333 85.333333-25.6 174.933333-81.066667 238.933333-12.8 12.8-12.8 42.666667 4.266667 55.466667 8.533333 8.533333 29.866667 8.533333 42.666666-4.266667 59.733333-64 98.133333-145.066667 106.666667-230.4z m-136.533333-17.066666c8.533333-72.533333-21.333333-145.066667-68.266667-192-12.8-12.8-38.4-12.8-51.2 4.266666-17.066667 12.8-17.066667 38.4 0 51.2 25.6 29.866667 42.666667 68.266667 46.933333 106.666667 0 42.666667-17.066667 89.6-46.933333 119.466667-8.533333 8.533333-12.8 21.333333-12.8 34.133333 0 29.866667 38.4 46.933333 59.733333 29.866667 42.666667-42.666667 64-98.133333 72.533334-153.6zM26.453333 416.298667c-8.533333-145.066667 42.666667-298.666667 140.8-401.066667 12.8-12.8 38.4-12.8 51.2 4.266667 17.066667 12.8 17.066667 38.4 0 55.466666-81.066667 89.6-128 217.6-119.466666 341.333334 8.533333 98.133333 51.2 196.266667 119.466666 273.066666 4.266667 4.266667 12.8 12.8 12.8 25.6 0 25.6-21.333333 46.933333-46.933333 42.666667-8.533333 0-17.066667-8.533333-21.333333-12.8-76.8-89.6-128-209.066667-136.533334-328.533333z m136.533334 4.266666c-12.8-110.933333 29.866667-230.4 106.666666-307.2 12.8-12.8 34.133333-12.8 46.933334 4.266667 12.8 12.8 17.066667 38.4 4.266666 51.2-46.933333 51.2-76.8 119.466667-85.333333 192-8.533333 85.333333 25.6 174.933333 81.066667 238.933333 12.8 12.8 12.8 42.666667-4.266667 55.466667-8.533333 8.533333-29.866667 8.533333-42.666667-4.266667-59.733333-64-98.133333-145.066667-106.666666-230.4z m136.533333-17.066666c-8.533333-72.533333 21.333333-145.066667 68.266667-192 12.8-12.8 38.4-12.8 51.2 4.266666 17.066667 12.8 17.066667 38.4 0 51.2-25.6 29.866667-42.666667 68.266667-46.933334 106.666667 0 42.666667 17.066667 89.6 46.933334 119.466667 8.533333 8.533333 12.8 21.333333 12.8 34.133333 0 29.866667-38.4 46.933333-59.733334 29.866667-42.666667-42.666667-64-98.133333-72.533333-153.6zM512 384m-89.6 0a89.6 89.6 0 1 1 179.2 0 89.6 89.6 0 1 1-179.2 0Z"  horiz-adv-x="1024" />

    
    <glyph glyph-name="shezhi" unicode="&#58901;" d="M951.466667 324.266667l-8.533334 4.266666c-8.533333 4.266667-17.066667 12.8-21.333333 21.333334-8.533333 12.8-8.533333 29.866667-4.266667 46.933333 4.266667 17.066667 17.066667 29.866667 29.866667 38.4l8.533333 4.266667c38.4 21.333333 51.2 72.533333 29.866667 106.666666l-85.333333 149.333334c-12.8 25.6-42.666667 38.4-68.266667 38.4-12.8 0-29.866667-4.266667-42.666667-12.8l-8.533333-4.266667c-8.533333-4.266667-21.333333-8.533333-29.866667-8.533333-34.133333 0-64 29.866667-64 64v12.8c0 21.333333-8.533333 42.666667-25.6 55.466666C640 853.333333 622.933333 861.866667 597.333333 861.866667H422.4c-21.333333 0-38.4-8.533333-55.466667-21.333334-12.8-17.066667-25.6-38.4-21.333333-59.733333v-8.533333c0-8.533333-4.266667-21.333333-8.533333-29.866667-8.533333-8.533333-17.066667-17.066667-25.6-21.333333-21.333333-12.8-42.666667-12.8-64 0L238.933333 725.333333c-17.066667 12.8-38.4 12.8-59.733333 8.533334-21.333333-4.266667-38.4-17.066667-46.933333-38.4L42.666667 550.4v-4.266667c-12.8-17.066667-12.8-38.4-8.533334-59.733333 4.266667-21.333333 21.333333-38.4 38.4-46.933333l8.533334-4.266667c8.533333-4.266667 17.066667-12.8 21.333333-21.333333 8.533333-12.8 8.533333-29.866667 4.266667-46.933334-4.266667-17.066667-17.066667-29.866667-29.866667-38.4l-8.533333-4.266666c-17.066667-8.533333-29.866667-29.866667-38.4-46.933334-4.266667-21.333333-4.266667-42.666667 8.533333-59.733333L128 68.266667c12.8-25.6 42.666667-38.4 68.266667-38.4 12.8 0 29.866667 4.266667 42.666666 12.8l8.533334 4.266666c25.6 12.8 55.466667 8.533333 76.8-8.533333 12.8-12.8 17.066667-25.6 17.066666-42.666667v-8.533333c0-42.666667 38.4-81.066667 81.066667-81.066667H597.333333c21.333333 0 42.666667 8.533333 55.466667 21.333334 17.066667 12.8 25.6 34.133333 25.6 55.466666v8.533334c0 8.533333 4.266667 21.333333 8.533333 29.866666 4.266667 8.533333 12.8 17.066667 21.333334 21.333334 21.333333 12.8 42.666667 12.8 64 0l8.533333-4.266667c17.066667-8.533333 38.4-12.8 59.733333-8.533333 21.333333 4.266667 38.4 17.066667 51.2 38.4l85.333334 149.333333v4.266667c8.533333 17.066667 12.8 38.4 8.533333 59.733333-4.266667 17.066667-17.066667 34.133333-34.133333 42.666667zM384 102.4c-25.6 25.6-59.733333 38.4-98.133333 38.4-21.333333 0-46.933333-4.266667-68.266667-17.066667l-4.266667-4.266666-85.333333 140.8 8.533333 4.266666c29.866667 17.066667 55.466667 46.933333 64 81.066667 8.533333 34.133333 4.266667 72.533333-12.8 102.4-12.8 25.6-29.866667 42.666667-51.2 51.2L128 503.466667l85.333333 140.8 8.533334-4.266667c42.666667-25.6 93.866667-25.6 136.533333 0 21.333333 12.8 38.4 29.866667 51.2 51.2 12.8 21.333333 17.066667 42.666667 17.066667 68.266667V768h170.666666v-8.533333c0-76.8 59.733333-136.533333 136.533334-136.533334 21.333333 0 46.933333 4.266667 68.266666 17.066667l8.533334 4.266667 85.333333-140.8-8.533333-4.266667c-34.133333-17.066667-55.466667-46.933333-64-85.333333-8.533333-34.133333-4.266667-72.533333 12.8-102.4 12.8-21.333333 29.866667-38.4 51.2-51.2l8.533333-4.266667-85.333333-140.8-8.533334 4.266667c-42.666667 25.6-93.866667 25.6-136.533333 0-21.333333-12.8-38.4-29.866667-51.2-51.2-12.8-21.333333-17.066667-42.666667-17.066667-68.266667v-8.533333h-170.666666V0c0 42.666667-12.8 81.066667-42.666667 102.4zM512 221.866667c85.333333 0 157.866667 72.533333 157.866667 157.866666 0 89.6-68.266667 162.133333-157.866667 166.4-85.333333 0-157.866667-72.533333-157.866667-157.866666 0-89.6 68.266667-166.4 157.866667-166.4zM448 384c0 34.133333 29.866667 64 64 64s64-29.866667 64-64-29.866667-64-64-64-64 25.6-64 64z"  horiz-adv-x="1024" />

    
    <glyph glyph-name="xiaoxi" unicode="&#58898;" d="M989.866667 123.733333l-59.733334 85.333334v226.133333c0 170.666667-106.666667 315.733333-264.533333 371.2-21.333333 51.2-72.533333 85.333333-128 85.333333s-106.666667-34.133333-128-85.333333c-157.866667-55.466667-264.533333-204.8-264.533333-371.2v-226.133333l-59.733334-85.333334c-17.066667-25.6-17.066667-55.466667-4.266666-81.066666 12.8-25.6 38.4-42.666667 68.266666-42.666667h196.266667c34.133333-72.533333 106.666667-123.733333 187.733333-123.733333s153.6 51.2 196.266667 123.733333h196.266667c29.866667 0 55.466667 17.066667 68.266666 42.666667 12.8 25.6 12.8 55.466667-4.266666 81.066666z m-814.933334-25.6l59.733334 85.333334v256c0 64 21.333333 123.733333 55.466666 174.933333 21.333333 25.6 42.666667 46.933333 68.266667 64 25.6 17.066667 51.2 34.133333 81.066667 42.666667l34.133333 12.8 12.8 34.133333c4.266667 8.533333 12.8 17.066667 17.066667 21.333333 17.066667 12.8 38.4 12.8 55.466666 0 8.533333-4.266667 12.8-12.8 17.066667-21.333333l12.8-38.4 34.133333-12.8c29.866667-8.533333 55.466667-25.6 81.066667-42.666667 25.6-17.066667 46.933333-38.4 64-64 38.4-51.2 59.733333-110.933333 59.733333-174.933333v-256l59.733334-85.333333-712.533334 4.266666z m422.4-106.666666c-38.4-25.6-89.6-25.6-128 0-4.266667 4.266667-12.8 8.533333-17.066666 12.8h157.866666l-12.8-12.8z"  horiz-adv-x="1024" />

    
    <glyph glyph-name="pingmufangda" unicode="&#58896;" d="M853.333333-55.466667H170.666667c-51.2 0-93.866667 42.666667-93.866667 93.866667V725.333333c0 51.2 42.666667 93.866667 93.866667 93.866667h682.666666c51.2 0 93.866667-42.666667 93.866667-93.866667v-682.666666c0-51.2-42.666667-98.133333-93.866667-98.133334zM179.2 51.2h661.333333V712.533333H179.2v-661.333333z"  horiz-adv-x="1024" />

    
    <glyph glyph-name="zhuangtailanshuaxin" unicode="&#58897;" d="M938.666667 375.466667c-4.266667 25.6-25.6 42.666667-51.2 42.666666-25.6-4.266667-42.666667-25.6-42.666667-51.2v-29.866666c0-162.133333-140.8-298.666667-315.733333-298.666667-174.933333 0-315.733333 132.266667-315.733334 298.666667 0 162.133333 140.8 298.666667 315.733334 298.666666h29.866666V554.666667c0-8.533333 4.266667-12.8 8.533334-17.066667 8.533333-12.8 25.6-12.8 38.4-4.266667l157.866666 140.8 4.266667 4.266667c8.533333 12.8 8.533333 29.866667-4.266667 38.4L605.866667 853.333333c-4.266667 4.266667-12.8 8.533333-17.066667 8.533334-17.066667 0-25.6-12.8-25.6-25.6V725.333333h-29.866667c-226.133333 0-409.6-174.933333-409.6-392.533333 0-213.333333 183.466667-392.533333 409.6-392.533333s409.6 174.933333 409.6 392.533333c0 12.8 0 25.6-4.266666 42.666667z"  horiz-adv-x="1024" />

    
    <glyph glyph-name="fuzhilianjie" unicode="&#58899;" d="M607.872 303.018667a220.330667 220.330667 0 0 0-305.706667 70.613333l-9.045333 14.464A220.330667 220.330667 0 0 0 363.690667 693.76l159.189333 99.498667a220.330667 220.330667 0 0 0 305.749333-70.570667l9.045334-14.506667c65.536-104.917333 30.72-242.389333-70.613334-305.706666l-45.226666 72.362666c65.152 40.704 81.92 126.634667 43.477333 188.16l-9.045333 14.464c-40.704 65.109333-123.008 84.138667-188.16 43.434667L408.917333 621.44c-65.152-40.704-84.138667-123.008-43.434666-188.16l9.045333-14.421333c40.704-65.152 123.008-84.138667 188.16-43.477334l18.048 11.306667 45.226667-72.362667-18.090667-11.306666z m-380.330667 69.248l18.090667 11.306666 45.226667-72.362666-18.133334-11.306667c-65.109333-40.704-84.096-123.008-43.434666-188.16l9.045333-14.464c40.704-65.109333 123.008-84.138667 188.16-43.434667l184.533333 115.328c65.109333 40.704 84.138667 123.008 43.434667 188.16l-9.045333 14.464c-38.4 61.482667-123.008 84.096-188.16 43.434667l-45.226667 72.362667c101.333333 63.274667 240.213333 34.346667 305.749333-70.613334l9.045334-14.464a220.330667 220.330667 0 0 0-70.570667-305.706666l-184.533333-115.328A220.330667 220.330667 0 0 0 165.973333 52.053333l-9.045333 14.506667a220.330667 220.330667 0 0 0 70.613333 305.706667z"  horiz-adv-x="1024" />

    
    <glyph glyph-name="zuixiaohua" unicode="&#58894;" d="M149.333333 426.666667h725.333334c34.133333 0 64-29.866667 64-64s-29.866667-64-64-64h-725.333334c-34.133333 0-64 29.866667-64 64S115.2 426.666667 149.333333 426.666667z"  horiz-adv-x="1024" />

    
    <glyph glyph-name="shuaxin" unicode="&#58893;" d="M910.59702 29.675922a41.361569 41.361569 0 0 1-63.046275 35.338039l-0.501961 0.501961A412.491294 412.491294 0 0 0 582.27451-30.117647c-228.673255 0-414.117647 185.444392-414.117647 414.117647h82.442039l-123.843765 158.017255L2.610196 384h82.823529c0-274.472157 222.46902-496.941176 496.941177-496.941176a494.993569 494.993569 0 0 1 308.525176 107.279058c11.786039 7.368784 19.676863 20.439843 19.676863 35.33804zM254.233098 734.569412A41.361569 41.361569 0 0 1 317.239216 699.231373l0.522039-0.501961a412.310588 412.310588 0 0 0 264.774274 95.633568c228.673255 0 414.117647-185.444392 414.117647-414.117647h-82.442039l123.843765-158.017255 124.245333 158.137726h-82.823529c0 274.492235-222.46902 496.941176-496.941177 496.941176a494.993569 494.993569 0 0 1-308.525176-107.279058 41.903686 41.903686 0 0 1-19.797333-35.45851z"  horiz-adv-x="1164" />

    
    <glyph glyph-name="mima" unicode="&#58892;" d="M850.375111 649.329778a405.048889 405.048889 0 0 1-82.261333 127.658666A381.44 381.44 0 0 1 646.371556 863.573333a364.942222 364.942222 0 0 1-298.325334-0.113777 380.586667 380.586667 0 0 1-121.742222-86.471112A403.342222 403.342222 0 0 1 144.156444 649.329778 412.672 412.672 0 0 1 113.891556 493.226667v-529.464889c0-43.235556 33.564444-78.336 74.979555-78.336h616.504889c41.358222 0 74.979556 35.100444 74.752 78.336V431.104l0.227556 21.504v40.675556a409.884444 409.884444 0 0 1-29.980445 156.046222z m-472.177778 143.36h0.170667l1.479111 0.512a282.168889 282.168889 0 0 0 117.304889 25.201778c40.618667 0 80.213333-8.533333 117.475556-24.974223a311.637333 311.637333 0 0 0 97.28-69.12c28.615111-30.094222 50.915556-64.853333 66.616888-103.594666 16.440889-40.334222 24.689778-83.057778 24.689778-127.431111v-33.336889H191.146667v33.450666c0 43.861333 8.248889 86.641778 24.689777 127.317334A326.883556 326.883556 0 0 0 282.453333 724.195556a303.331556 303.331556 0 0 0 95.687111 68.437333z m425.358223-409.429334v-419.271111a5.176889 5.176889 0 0 0-0.227556-1.592889H191.374222a5.176889 5.176889 0 0 0-0.227555 1.536v419.271112h612.408889zM461.539556 210.318222v-100.750222a35.84 35.84 0 0 1 35.84-35.726222 35.84 35.84 0 0 1 35.84 35.726222V210.488889c19.057778 12.174222 30.492444 32.654222 30.492444 55.409778 0 36.408889-29.752889 66.048-66.446222 66.048-36.636444 0-66.389333-29.582222-66.389334-66.048 0.113778-22.414222 11.776-43.576889 30.72-55.637334z"  horiz-adv-x="1024" />

    
    <glyph glyph-name="shouji" unicode="&#58891;" d="M301.511111-99.555556c-39.822222 0-79.644444 5.688889-119.466667 22.755556-91.022222 39.822222-142.222222 85.333333-153.6 136.533333-5.688889 39.822222 5.688889 79.644444 34.133334 108.088889 39.822222 45.511111 125.155556 136.533333 199.111111 136.533334 39.822222 0 79.644444-17.066667 102.4-51.2 5.688889-11.377778 17.066667-17.066667 28.444444-22.755556 11.377778-5.688889 28.444444-11.377778 39.822223-11.377778 102.4 0 227.555556 125.155556 227.555555 227.555556 0 17.066667-5.688889 28.444444-11.377778 45.511111-5.688889 11.377778-11.377778 22.755556-22.755555 28.444444-22.755556 28.444444-39.822222 68.266667-39.822222 108.088889 0 85.333333 108.088889 176.355556 142.222222 204.8 22.755556 22.755556 62.577778 39.822222 102.4 34.133334 56.888889-11.377778 102.4-62.577778 142.222222-153.6 17.066667-39.822222 28.444444-85.333333 22.755556-130.844445-11.377778-369.777778-312.888889-665.6-682.666667-682.666667h-11.377778c5.688889 0 0 0 0 0z m-34.133333 318.577778c-28.444444 0-91.022222-45.511111-142.222222-108.088889-11.377778-11.377778-17.066667-22.755556-17.066667-34.133333 0 0 11.377778-34.133333 102.4-73.955556 28.444444-11.377778 56.888889-17.066667 91.022222-17.066666h5.688889c324.266667 11.377778 585.955556 273.066667 597.333333 597.333333 0 34.133333-5.688889 62.577778-17.066666 96.711111C853.333333 770.844444 819.2 782.222222 813.511111 782.222222c-11.377778 0-22.755556 0-28.444444-11.377778-56.888889-45.511111-113.777778-108.088889-113.777778-142.222222 0-11.377778 5.688889-28.444444 17.066667-34.133333 22.755556-17.066667 34.133333-39.822222 45.511111-62.577778 11.377778-22.755556 17.066667-51.2 17.066666-79.644444 0-147.911111-164.977778-307.2-307.2-307.2-28.444444 0-56.888889 5.688889-79.644444 17.066666-22.755556 11.377778-39.822222 22.755556-56.888889 45.511111-11.377778 5.688889-28.444444 11.377778-39.822222 11.377778z"  horiz-adv-x="1024" />

    
    <glyph glyph-name="querenduigougouhao" unicode="&#58982;" d="M403.3 236.1c18 16.3 32.2 28.6 45.7 41.6 129.2 124.4 258.6 248.7 387.3 373.5 31.2 30.2 63.8 45.4 102 13.8 32-26.4 27.2-63.2-12.6-101.7C773.2 415.7 620.2 268.2 467.1 121c-48-46.1-74.1-46.4-121.2-1.5-83.1 79.4-165.3 159.8-248.5 239.1C66 388.5 50.1 420 82.8 456.9c27.4 30.9 65.6 26.4 105.5-11.9 71.3-68.5 141.9-137.8 215-208.9z"  horiz-adv-x="1024" />

    
    <glyph glyph-name="tixing" unicode="&#59202;" d="M512 896a512 512 0 1 1 512-512A512 512 0 0 1 512 896z m1.92-773.76a56 56 0 1 0 56 56 57.28 57.28 0 0 0-56-56z m47.68 201.92c0-34.88-14.72-64-47.68-64s-47.68 27.84-47.68 64L448 582.72a64 64 0 0 0 62.08 64 66.56 66.56 0 0 0 65.92-64z"  horiz-adv-x="1024" />

    
    <glyph glyph-name="ArrowRight" unicode="&#58889;" d="M1001.4976 396.8l-501.76-501.76-53.76 53.76 409.6 407.04H0.5376v76.8l855.04 2.56-407.04 407.04 53.76 53.76 499.2-499.2z"  horiz-adv-x="1024" />

    


  </font>
</defs>
</svg>
